%TF.GenerationSoftware,KiCad,Pcbnew,(6.0.0)*%
%TF.CreationDate,2022-01-23T09:20:33-05:00*%
%TF.ProjectId,Featherwing-bme680-als-PT19-breakout,46656174-6865-4727-9769-6e672d626d65,rev?*%
%TF.SameCoordinates,Original*%
%TF.FileFunction,Legend,Top*%
%TF.FilePolarity,Positive*%
%FSLAX46Y46*%
G04 Gerber Fmt 4.6, Leading zero omitted, Abs format (unit mm)*
G04 Created by KiCad (PCBNEW (6.0.0)) date 2022-01-23 09:20:33*
%MOMM*%
%LPD*%
G01*
G04 APERTURE LIST*
%ADD10C,0.150000*%
%ADD11C,0.100000*%
%ADD12C,0.120000*%
G04 APERTURE END LIST*
D10*
X135315771Y-96389666D02*
X135791961Y-96389666D01*
X135220533Y-96675380D02*
X135553866Y-95675380D01*
X135887200Y-96675380D01*
X136696723Y-96675380D02*
X136220533Y-96675380D01*
X136220533Y-95675380D01*
X136982438Y-96627761D02*
X137125295Y-96675380D01*
X137363390Y-96675380D01*
X137458628Y-96627761D01*
X137506247Y-96580142D01*
X137553866Y-96484904D01*
X137553866Y-96389666D01*
X137506247Y-96294428D01*
X137458628Y-96246809D01*
X137363390Y-96199190D01*
X137172914Y-96151571D01*
X137077676Y-96103952D01*
X137030057Y-96056333D01*
X136982438Y-95961095D01*
X136982438Y-95865857D01*
X137030057Y-95770619D01*
X137077676Y-95723000D01*
X137172914Y-95675380D01*
X137411009Y-95675380D01*
X137553866Y-95723000D01*
X137982438Y-96294428D02*
X138744342Y-96294428D01*
X139220533Y-96675380D02*
X139220533Y-95675380D01*
X139601485Y-95675380D01*
X139696723Y-95723000D01*
X139744342Y-95770619D01*
X139791961Y-95865857D01*
X139791961Y-96008714D01*
X139744342Y-96103952D01*
X139696723Y-96151571D01*
X139601485Y-96199190D01*
X139220533Y-96199190D01*
X140077676Y-95675380D02*
X140649104Y-95675380D01*
X140363390Y-96675380D02*
X140363390Y-95675380D01*
X141506247Y-96675380D02*
X140934819Y-96675380D01*
X141220533Y-96675380D02*
X141220533Y-95675380D01*
X141125295Y-95818238D01*
X141030057Y-95913476D01*
X140934819Y-95961095D01*
X141982438Y-96675380D02*
X142172914Y-96675380D01*
X142268152Y-96627761D01*
X142315771Y-96580142D01*
X142411009Y-96437285D01*
X142458628Y-96246809D01*
X142458628Y-95865857D01*
X142411009Y-95770619D01*
X142363390Y-95723000D01*
X142268152Y-95675380D01*
X142077676Y-95675380D01*
X141982438Y-95723000D01*
X141934819Y-95770619D01*
X141887200Y-95865857D01*
X141887200Y-96103952D01*
X141934819Y-96199190D01*
X141982438Y-96246809D01*
X142077676Y-96294428D01*
X142268152Y-96294428D01*
X142363390Y-96246809D01*
X142411009Y-96199190D01*
X142458628Y-96103952D01*
X136172914Y-97761571D02*
X136315771Y-97809190D01*
X136363390Y-97856809D01*
X136411009Y-97952047D01*
X136411009Y-98094904D01*
X136363390Y-98190142D01*
X136315771Y-98237761D01*
X136220533Y-98285380D01*
X135839580Y-98285380D01*
X135839580Y-97285380D01*
X136172914Y-97285380D01*
X136268152Y-97333000D01*
X136315771Y-97380619D01*
X136363390Y-97475857D01*
X136363390Y-97571095D01*
X136315771Y-97666333D01*
X136268152Y-97713952D01*
X136172914Y-97761571D01*
X135839580Y-97761571D01*
X136839580Y-98285380D02*
X136839580Y-97618714D01*
X136839580Y-97809190D02*
X136887200Y-97713952D01*
X136934819Y-97666333D01*
X137030057Y-97618714D01*
X137125295Y-97618714D01*
X137839580Y-98237761D02*
X137744342Y-98285380D01*
X137553866Y-98285380D01*
X137458628Y-98237761D01*
X137411009Y-98142523D01*
X137411009Y-97761571D01*
X137458628Y-97666333D01*
X137553866Y-97618714D01*
X137744342Y-97618714D01*
X137839580Y-97666333D01*
X137887200Y-97761571D01*
X137887200Y-97856809D01*
X137411009Y-97952047D01*
X138744342Y-98285380D02*
X138744342Y-97761571D01*
X138696723Y-97666333D01*
X138601485Y-97618714D01*
X138411009Y-97618714D01*
X138315771Y-97666333D01*
X138744342Y-98237761D02*
X138649104Y-98285380D01*
X138411009Y-98285380D01*
X138315771Y-98237761D01*
X138268152Y-98142523D01*
X138268152Y-98047285D01*
X138315771Y-97952047D01*
X138411009Y-97904428D01*
X138649104Y-97904428D01*
X138744342Y-97856809D01*
X139220533Y-98285380D02*
X139220533Y-97285380D01*
X139315771Y-97904428D02*
X139601485Y-98285380D01*
X139601485Y-97618714D02*
X139220533Y-97999666D01*
X140172914Y-98285380D02*
X140077676Y-98237761D01*
X140030057Y-98190142D01*
X139982438Y-98094904D01*
X139982438Y-97809190D01*
X140030057Y-97713952D01*
X140077676Y-97666333D01*
X140172914Y-97618714D01*
X140315771Y-97618714D01*
X140411009Y-97666333D01*
X140458628Y-97713952D01*
X140506247Y-97809190D01*
X140506247Y-98094904D01*
X140458628Y-98190142D01*
X140411009Y-98237761D01*
X140315771Y-98285380D01*
X140172914Y-98285380D01*
X141363390Y-97618714D02*
X141363390Y-98285380D01*
X140934819Y-97618714D02*
X140934819Y-98142523D01*
X140982438Y-98237761D01*
X141077676Y-98285380D01*
X141220533Y-98285380D01*
X141315771Y-98237761D01*
X141363390Y-98190142D01*
X141696723Y-97618714D02*
X142077676Y-97618714D01*
X141839580Y-97285380D02*
X141839580Y-98142523D01*
X141887200Y-98237761D01*
X141982438Y-98285380D01*
X142077676Y-98285380D01*
X136150647Y-112661571D02*
X136293504Y-112709190D01*
X136341123Y-112756809D01*
X136388742Y-112852047D01*
X136388742Y-112994904D01*
X136341123Y-113090142D01*
X136293504Y-113137761D01*
X136198266Y-113185380D01*
X135817314Y-113185380D01*
X135817314Y-112185380D01*
X136150647Y-112185380D01*
X136245885Y-112233000D01*
X136293504Y-112280619D01*
X136341123Y-112375857D01*
X136341123Y-112471095D01*
X136293504Y-112566333D01*
X136245885Y-112613952D01*
X136150647Y-112661571D01*
X135817314Y-112661571D01*
X136817314Y-113185380D02*
X136817314Y-112185380D01*
X137150647Y-112899666D01*
X137483980Y-112185380D01*
X137483980Y-113185380D01*
X137960171Y-112661571D02*
X138293504Y-112661571D01*
X138436361Y-113185380D02*
X137960171Y-113185380D01*
X137960171Y-112185380D01*
X138436361Y-112185380D01*
X139293504Y-112185380D02*
X139103028Y-112185380D01*
X139007790Y-112233000D01*
X138960171Y-112280619D01*
X138864933Y-112423476D01*
X138817314Y-112613952D01*
X138817314Y-112994904D01*
X138864933Y-113090142D01*
X138912552Y-113137761D01*
X139007790Y-113185380D01*
X139198266Y-113185380D01*
X139293504Y-113137761D01*
X139341123Y-113090142D01*
X139388742Y-112994904D01*
X139388742Y-112756809D01*
X139341123Y-112661571D01*
X139293504Y-112613952D01*
X139198266Y-112566333D01*
X139007790Y-112566333D01*
X138912552Y-112613952D01*
X138864933Y-112661571D01*
X138817314Y-112756809D01*
X139960171Y-112613952D02*
X139864933Y-112566333D01*
X139817314Y-112518714D01*
X139769695Y-112423476D01*
X139769695Y-112375857D01*
X139817314Y-112280619D01*
X139864933Y-112233000D01*
X139960171Y-112185380D01*
X140150647Y-112185380D01*
X140245885Y-112233000D01*
X140293504Y-112280619D01*
X140341123Y-112375857D01*
X140341123Y-112423476D01*
X140293504Y-112518714D01*
X140245885Y-112566333D01*
X140150647Y-112613952D01*
X139960171Y-112613952D01*
X139864933Y-112661571D01*
X139817314Y-112709190D01*
X139769695Y-112804428D01*
X139769695Y-112994904D01*
X139817314Y-113090142D01*
X139864933Y-113137761D01*
X139960171Y-113185380D01*
X140150647Y-113185380D01*
X140245885Y-113137761D01*
X140293504Y-113090142D01*
X140341123Y-112994904D01*
X140341123Y-112804428D01*
X140293504Y-112709190D01*
X140245885Y-112661571D01*
X140150647Y-112613952D01*
X140960171Y-112185380D02*
X141055409Y-112185380D01*
X141150647Y-112233000D01*
X141198266Y-112280619D01*
X141245885Y-112375857D01*
X141293504Y-112566333D01*
X141293504Y-112804428D01*
X141245885Y-112994904D01*
X141198266Y-113090142D01*
X141150647Y-113137761D01*
X141055409Y-113185380D01*
X140960171Y-113185380D01*
X140864933Y-113137761D01*
X140817314Y-113090142D01*
X140769695Y-112994904D01*
X140722076Y-112804428D01*
X140722076Y-112566333D01*
X140769695Y-112375857D01*
X140817314Y-112280619D01*
X140864933Y-112233000D01*
X140960171Y-112185380D01*
X135817314Y-114271571D02*
X135960171Y-114319190D01*
X136007790Y-114366809D01*
X136055409Y-114462047D01*
X136055409Y-114604904D01*
X136007790Y-114700142D01*
X135960171Y-114747761D01*
X135864933Y-114795380D01*
X135483980Y-114795380D01*
X135483980Y-113795380D01*
X135817314Y-113795380D01*
X135912552Y-113843000D01*
X135960171Y-113890619D01*
X136007790Y-113985857D01*
X136007790Y-114081095D01*
X135960171Y-114176333D01*
X135912552Y-114223952D01*
X135817314Y-114271571D01*
X135483980Y-114271571D01*
X136483980Y-114795380D02*
X136483980Y-114128714D01*
X136483980Y-114319190D02*
X136531600Y-114223952D01*
X136579219Y-114176333D01*
X136674457Y-114128714D01*
X136769695Y-114128714D01*
X137483980Y-114747761D02*
X137388742Y-114795380D01*
X137198266Y-114795380D01*
X137103028Y-114747761D01*
X137055409Y-114652523D01*
X137055409Y-114271571D01*
X137103028Y-114176333D01*
X137198266Y-114128714D01*
X137388742Y-114128714D01*
X137483980Y-114176333D01*
X137531600Y-114271571D01*
X137531600Y-114366809D01*
X137055409Y-114462047D01*
X138388742Y-114795380D02*
X138388742Y-114271571D01*
X138341123Y-114176333D01*
X138245885Y-114128714D01*
X138055409Y-114128714D01*
X137960171Y-114176333D01*
X138388742Y-114747761D02*
X138293504Y-114795380D01*
X138055409Y-114795380D01*
X137960171Y-114747761D01*
X137912552Y-114652523D01*
X137912552Y-114557285D01*
X137960171Y-114462047D01*
X138055409Y-114414428D01*
X138293504Y-114414428D01*
X138388742Y-114366809D01*
X138864933Y-114795380D02*
X138864933Y-113795380D01*
X138960171Y-114414428D02*
X139245885Y-114795380D01*
X139245885Y-114128714D02*
X138864933Y-114509666D01*
X139817314Y-114795380D02*
X139722076Y-114747761D01*
X139674457Y-114700142D01*
X139626838Y-114604904D01*
X139626838Y-114319190D01*
X139674457Y-114223952D01*
X139722076Y-114176333D01*
X139817314Y-114128714D01*
X139960171Y-114128714D01*
X140055409Y-114176333D01*
X140103028Y-114223952D01*
X140150647Y-114319190D01*
X140150647Y-114604904D01*
X140103028Y-114700142D01*
X140055409Y-114747761D01*
X139960171Y-114795380D01*
X139817314Y-114795380D01*
X141007790Y-114128714D02*
X141007790Y-114795380D01*
X140579219Y-114128714D02*
X140579219Y-114652523D01*
X140626838Y-114747761D01*
X140722076Y-114795380D01*
X140864933Y-114795380D01*
X140960171Y-114747761D01*
X141007790Y-114700142D01*
X141341123Y-114128714D02*
X141722076Y-114128714D01*
X141483980Y-113795380D02*
X141483980Y-114652523D01*
X141531600Y-114747761D01*
X141626838Y-114795380D01*
X141722076Y-114795380D01*
X141498628Y-91916000D02*
X141498628Y-91154095D01*
X141879580Y-91535047D02*
X141117676Y-91535047D01*
X140879580Y-90773142D02*
X140879580Y-90154095D01*
X141260533Y-90487428D01*
X141260533Y-90344571D01*
X141308152Y-90249333D01*
X141355771Y-90201714D01*
X141451009Y-90154095D01*
X141689104Y-90154095D01*
X141784342Y-90201714D01*
X141831961Y-90249333D01*
X141879580Y-90344571D01*
X141879580Y-90630285D01*
X141831961Y-90725523D01*
X141784342Y-90773142D01*
X141784342Y-89725523D02*
X141831961Y-89677904D01*
X141879580Y-89725523D01*
X141831961Y-89773142D01*
X141784342Y-89725523D01*
X141879580Y-89725523D01*
X140879580Y-89344571D02*
X140879580Y-88725523D01*
X141260533Y-89058857D01*
X141260533Y-88916000D01*
X141308152Y-88820761D01*
X141355771Y-88773142D01*
X141451009Y-88725523D01*
X141689104Y-88725523D01*
X141784342Y-88773142D01*
X141831961Y-88820761D01*
X141879580Y-88916000D01*
X141879580Y-89201714D01*
X141831961Y-89296952D01*
X141784342Y-89344571D01*
X140879580Y-88439809D02*
X141879580Y-88106476D01*
X140879580Y-87773142D01*
X138339580Y-91725524D02*
X138339580Y-91535047D01*
X138387200Y-91439809D01*
X138482438Y-91344571D01*
X138672914Y-91296952D01*
X139006247Y-91296952D01*
X139196723Y-91344571D01*
X139291961Y-91439809D01*
X139339580Y-91535047D01*
X139339580Y-91725524D01*
X139291961Y-91820762D01*
X139196723Y-91916000D01*
X139006247Y-91963619D01*
X138672914Y-91963619D01*
X138482438Y-91916000D01*
X138387200Y-91820762D01*
X138339580Y-91725524D01*
X138339580Y-90868381D02*
X139149104Y-90868381D01*
X139244342Y-90820762D01*
X139291961Y-90773143D01*
X139339580Y-90677904D01*
X139339580Y-90487428D01*
X139291961Y-90392190D01*
X139244342Y-90344571D01*
X139149104Y-90296952D01*
X138339580Y-90296952D01*
X138339580Y-89963619D02*
X138339580Y-89392190D01*
X139339580Y-89677904D02*
X138339580Y-89677904D01*
X135847200Y-91392190D02*
X135799580Y-91487428D01*
X135799580Y-91630286D01*
X135847200Y-91773143D01*
X135942438Y-91868381D01*
X136037676Y-91916000D01*
X136228152Y-91963619D01*
X136371009Y-91963619D01*
X136561485Y-91916000D01*
X136656723Y-91868381D01*
X136751961Y-91773143D01*
X136799580Y-91630286D01*
X136799580Y-91535047D01*
X136751961Y-91392190D01*
X136704342Y-91344571D01*
X136371009Y-91344571D01*
X136371009Y-91535047D01*
X136799580Y-90916000D02*
X135799580Y-90916000D01*
X136799580Y-90344571D01*
X135799580Y-90344571D01*
X136799580Y-89868381D02*
X135799580Y-89868381D01*
X135799580Y-89630286D01*
X135847200Y-89487428D01*
X135942438Y-89392190D01*
X136037676Y-89344571D01*
X136228152Y-89296952D01*
X136371009Y-89296952D01*
X136561485Y-89344571D01*
X136656723Y-89392190D01*
X136751961Y-89487428D01*
X136799580Y-89630286D01*
X136799580Y-89868381D01*
X145089714Y-128547761D02*
X145232571Y-128595380D01*
X145470666Y-128595380D01*
X145565904Y-128547761D01*
X145613523Y-128500142D01*
X145661142Y-128404904D01*
X145661142Y-128309666D01*
X145613523Y-128214428D01*
X145565904Y-128166809D01*
X145470666Y-128119190D01*
X145280190Y-128071571D01*
X145184952Y-128023952D01*
X145137333Y-127976333D01*
X145089714Y-127881095D01*
X145089714Y-127785857D01*
X145137333Y-127690619D01*
X145184952Y-127643000D01*
X145280190Y-127595380D01*
X145518285Y-127595380D01*
X145661142Y-127643000D01*
X146089714Y-128595380D02*
X146089714Y-127595380D01*
X146327809Y-127595380D01*
X146470666Y-127643000D01*
X146565904Y-127738238D01*
X146613523Y-127833476D01*
X146661142Y-128023952D01*
X146661142Y-128166809D01*
X146613523Y-128357285D01*
X146565904Y-128452523D01*
X146470666Y-128547761D01*
X146327809Y-128595380D01*
X146089714Y-128595380D01*
X147042095Y-128309666D02*
X147518285Y-128309666D01*
X146946857Y-128595380D02*
X147280190Y-127595380D01*
X147613523Y-128595380D01*
X145137332Y-126007761D02*
X145280189Y-126055380D01*
X145518285Y-126055380D01*
X145613523Y-126007761D01*
X145661142Y-125960142D01*
X145708761Y-125864904D01*
X145708761Y-125769666D01*
X145661142Y-125674428D01*
X145613523Y-125626809D01*
X145518285Y-125579190D01*
X145327809Y-125531571D01*
X145232570Y-125483952D01*
X145184951Y-125436333D01*
X145137332Y-125341095D01*
X145137332Y-125245857D01*
X145184951Y-125150619D01*
X145232570Y-125103000D01*
X145327809Y-125055380D01*
X145565904Y-125055380D01*
X145708761Y-125103000D01*
X146708761Y-125960142D02*
X146661142Y-126007761D01*
X146518285Y-126055380D01*
X146423047Y-126055380D01*
X146280189Y-126007761D01*
X146184951Y-125912523D01*
X146137332Y-125817285D01*
X146089713Y-125626809D01*
X146089713Y-125483952D01*
X146137332Y-125293476D01*
X146184951Y-125198238D01*
X146280189Y-125103000D01*
X146423047Y-125055380D01*
X146518285Y-125055380D01*
X146661142Y-125103000D01*
X146708761Y-125150619D01*
X147613523Y-126055380D02*
X147137332Y-126055380D01*
X147137332Y-125055380D01*
X145994475Y-123515380D02*
X145994475Y-122515380D01*
X146232571Y-122515380D01*
X146375428Y-122563000D01*
X146470666Y-122658238D01*
X146518285Y-122753476D01*
X146565904Y-122943952D01*
X146565904Y-123086809D01*
X146518285Y-123277285D01*
X146470666Y-123372523D01*
X146375428Y-123467761D01*
X146232571Y-123515380D01*
X145994475Y-123515380D01*
X147470666Y-122515380D02*
X146994475Y-122515380D01*
X146946856Y-122991571D01*
X146994475Y-122943952D01*
X147089713Y-122896333D01*
X147327809Y-122896333D01*
X147423047Y-122943952D01*
X147470666Y-122991571D01*
X147518285Y-123086809D01*
X147518285Y-123324904D01*
X147470666Y-123420142D01*
X147423047Y-123467761D01*
X147327809Y-123515380D01*
X147089713Y-123515380D01*
X146994475Y-123467761D01*
X146946856Y-123420142D01*
X145994475Y-120975380D02*
X145994475Y-119975380D01*
X146232571Y-119975380D01*
X146375428Y-120023000D01*
X146470666Y-120118238D01*
X146518285Y-120213476D01*
X146565904Y-120403952D01*
X146565904Y-120546809D01*
X146518285Y-120737285D01*
X146470666Y-120832523D01*
X146375428Y-120927761D01*
X146232571Y-120975380D01*
X145994475Y-120975380D01*
X147423047Y-119975380D02*
X147232571Y-119975380D01*
X147137332Y-120023000D01*
X147089713Y-120070619D01*
X146994475Y-120213476D01*
X146946856Y-120403952D01*
X146946856Y-120784904D01*
X146994475Y-120880142D01*
X147042094Y-120927761D01*
X147137332Y-120975380D01*
X147327809Y-120975380D01*
X147423047Y-120927761D01*
X147470666Y-120880142D01*
X147518285Y-120784904D01*
X147518285Y-120546809D01*
X147470666Y-120451571D01*
X147423047Y-120403952D01*
X147327809Y-120356333D01*
X147137332Y-120356333D01*
X147042094Y-120403952D01*
X146994475Y-120451571D01*
X146946856Y-120546809D01*
X145994475Y-118435380D02*
X145994475Y-117435380D01*
X146232571Y-117435380D01*
X146375428Y-117483000D01*
X146470666Y-117578238D01*
X146518285Y-117673476D01*
X146565904Y-117863952D01*
X146565904Y-118006809D01*
X146518285Y-118197285D01*
X146470666Y-118292523D01*
X146375428Y-118387761D01*
X146232571Y-118435380D01*
X145994475Y-118435380D01*
X147042094Y-118435380D02*
X147232571Y-118435380D01*
X147327809Y-118387761D01*
X147375428Y-118340142D01*
X147470666Y-118197285D01*
X147518285Y-118006809D01*
X147518285Y-117625857D01*
X147470666Y-117530619D01*
X147423047Y-117483000D01*
X147327809Y-117435380D01*
X147137332Y-117435380D01*
X147042094Y-117483000D01*
X146994475Y-117530619D01*
X146946856Y-117625857D01*
X146946856Y-117863952D01*
X146994475Y-117959190D01*
X147042094Y-118006809D01*
X147137332Y-118054428D01*
X147327809Y-118054428D01*
X147423047Y-118006809D01*
X147470666Y-117959190D01*
X147518285Y-117863952D01*
X145042095Y-115895380D02*
X145042095Y-114895380D01*
X145280190Y-114895380D01*
X145423047Y-114943000D01*
X145518285Y-115038238D01*
X145565904Y-115133476D01*
X145613523Y-115323952D01*
X145613523Y-115466809D01*
X145565904Y-115657285D01*
X145518285Y-115752523D01*
X145423047Y-115847761D01*
X145280190Y-115895380D01*
X145042095Y-115895380D01*
X146565904Y-115895380D02*
X145994476Y-115895380D01*
X146280190Y-115895380D02*
X146280190Y-114895380D01*
X146184952Y-115038238D01*
X146089714Y-115133476D01*
X145994476Y-115181095D01*
X147184952Y-114895380D02*
X147280190Y-114895380D01*
X147375428Y-114943000D01*
X147423047Y-114990619D01*
X147470666Y-115085857D01*
X147518285Y-115276333D01*
X147518285Y-115514428D01*
X147470666Y-115704904D01*
X147423047Y-115800142D01*
X147375428Y-115847761D01*
X147280190Y-115895380D01*
X147184952Y-115895380D01*
X147089714Y-115847761D01*
X147042095Y-115800142D01*
X146994476Y-115704904D01*
X146946857Y-115514428D01*
X146946857Y-115276333D01*
X146994476Y-115085857D01*
X147042095Y-114990619D01*
X147089714Y-114943000D01*
X147184952Y-114895380D01*
X145042095Y-113355380D02*
X145042095Y-112355380D01*
X145280190Y-112355380D01*
X145423047Y-112403000D01*
X145518285Y-112498238D01*
X145565904Y-112593476D01*
X145613523Y-112783952D01*
X145613523Y-112926809D01*
X145565904Y-113117285D01*
X145518285Y-113212523D01*
X145423047Y-113307761D01*
X145280190Y-113355380D01*
X145042095Y-113355380D01*
X146565904Y-113355380D02*
X145994476Y-113355380D01*
X146280190Y-113355380D02*
X146280190Y-112355380D01*
X146184952Y-112498238D01*
X146089714Y-112593476D01*
X145994476Y-112641095D01*
X147518285Y-113355380D02*
X146946857Y-113355380D01*
X147232571Y-113355380D02*
X147232571Y-112355380D01*
X147137333Y-112498238D01*
X147042095Y-112593476D01*
X146946857Y-112641095D01*
X145042095Y-110815380D02*
X145042095Y-109815380D01*
X145280190Y-109815380D01*
X145423047Y-109863000D01*
X145518285Y-109958238D01*
X145565904Y-110053476D01*
X145613523Y-110243952D01*
X145613523Y-110386809D01*
X145565904Y-110577285D01*
X145518285Y-110672523D01*
X145423047Y-110767761D01*
X145280190Y-110815380D01*
X145042095Y-110815380D01*
X146565904Y-110815380D02*
X145994476Y-110815380D01*
X146280190Y-110815380D02*
X146280190Y-109815380D01*
X146184952Y-109958238D01*
X146089714Y-110053476D01*
X145994476Y-110101095D01*
X146946857Y-109910619D02*
X146994476Y-109863000D01*
X147089714Y-109815380D01*
X147327809Y-109815380D01*
X147423047Y-109863000D01*
X147470666Y-109910619D01*
X147518285Y-110005857D01*
X147518285Y-110101095D01*
X147470666Y-110243952D01*
X146899238Y-110815380D01*
X147518285Y-110815380D01*
X145042095Y-108275380D02*
X145042095Y-107275380D01*
X145280190Y-107275380D01*
X145423047Y-107323000D01*
X145518285Y-107418238D01*
X145565904Y-107513476D01*
X145613523Y-107703952D01*
X145613523Y-107846809D01*
X145565904Y-108037285D01*
X145518285Y-108132523D01*
X145423047Y-108227761D01*
X145280190Y-108275380D01*
X145042095Y-108275380D01*
X146565904Y-108275380D02*
X145994476Y-108275380D01*
X146280190Y-108275380D02*
X146280190Y-107275380D01*
X146184952Y-107418238D01*
X146089714Y-107513476D01*
X145994476Y-107561095D01*
X146899238Y-107275380D02*
X147518285Y-107275380D01*
X147184952Y-107656333D01*
X147327809Y-107656333D01*
X147423047Y-107703952D01*
X147470666Y-107751571D01*
X147518285Y-107846809D01*
X147518285Y-108084904D01*
X147470666Y-108180142D01*
X147423047Y-108227761D01*
X147327809Y-108275380D01*
X147042095Y-108275380D01*
X146946857Y-108227761D01*
X146899238Y-108180142D01*
X144946857Y-104735380D02*
X144946857Y-105544904D01*
X144994476Y-105640142D01*
X145042095Y-105687761D01*
X145137333Y-105735380D01*
X145327809Y-105735380D01*
X145423047Y-105687761D01*
X145470666Y-105640142D01*
X145518285Y-105544904D01*
X145518285Y-104735380D01*
X145946857Y-105687761D02*
X146089714Y-105735380D01*
X146327809Y-105735380D01*
X146423047Y-105687761D01*
X146470666Y-105640142D01*
X146518285Y-105544904D01*
X146518285Y-105449666D01*
X146470666Y-105354428D01*
X146423047Y-105306809D01*
X146327809Y-105259190D01*
X146137333Y-105211571D01*
X146042095Y-105163952D01*
X145994476Y-105116333D01*
X145946857Y-105021095D01*
X145946857Y-104925857D01*
X145994476Y-104830619D01*
X146042095Y-104783000D01*
X146137333Y-104735380D01*
X146375428Y-104735380D01*
X146518285Y-104783000D01*
X147280190Y-105211571D02*
X147423047Y-105259190D01*
X147470666Y-105306809D01*
X147518285Y-105402047D01*
X147518285Y-105544904D01*
X147470666Y-105640142D01*
X147423047Y-105687761D01*
X147327809Y-105735380D01*
X146946857Y-105735380D01*
X146946857Y-104735380D01*
X147280190Y-104735380D01*
X147375428Y-104783000D01*
X147423047Y-104830619D01*
X147470666Y-104925857D01*
X147470666Y-105021095D01*
X147423047Y-105116333D01*
X147375428Y-105163952D01*
X147280190Y-105211571D01*
X146946857Y-105211571D01*
X145994475Y-102671571D02*
X146327809Y-102671571D01*
X146470666Y-103195380D02*
X145994475Y-103195380D01*
X145994475Y-102195380D01*
X146470666Y-102195380D01*
X146899237Y-103195380D02*
X146899237Y-102195380D01*
X147470666Y-103195380D01*
X147470666Y-102195380D01*
X145661142Y-100131571D02*
X145803999Y-100179190D01*
X145851618Y-100226809D01*
X145899238Y-100322047D01*
X145899238Y-100464904D01*
X145851618Y-100560142D01*
X145803999Y-100607761D01*
X145708761Y-100655380D01*
X145327809Y-100655380D01*
X145327809Y-99655380D01*
X145661142Y-99655380D01*
X145756380Y-99703000D01*
X145803999Y-99750619D01*
X145851618Y-99845857D01*
X145851618Y-99941095D01*
X145803999Y-100036333D01*
X145756380Y-100083952D01*
X145661142Y-100131571D01*
X145327809Y-100131571D01*
X146280190Y-100369666D02*
X146756380Y-100369666D01*
X146184952Y-100655380D02*
X146518285Y-99655380D01*
X146851618Y-100655380D01*
X147042095Y-99655380D02*
X147613523Y-99655380D01*
X147327809Y-100655380D02*
X147327809Y-99655380D01*
X134961333Y-132170442D02*
X134913714Y-132218061D01*
X134770857Y-132265680D01*
X134675619Y-132265680D01*
X134532761Y-132218061D01*
X134437523Y-132122823D01*
X134389904Y-132027585D01*
X134342285Y-131837109D01*
X134342285Y-131694252D01*
X134389904Y-131503776D01*
X134437523Y-131408538D01*
X134532761Y-131313300D01*
X134675619Y-131265680D01*
X134770857Y-131265680D01*
X134913714Y-131313300D01*
X134961333Y-131360919D01*
X135342285Y-132218061D02*
X135485142Y-132265680D01*
X135723238Y-132265680D01*
X135818476Y-132218061D01*
X135866095Y-132170442D01*
X135913714Y-132075204D01*
X135913714Y-131979966D01*
X135866095Y-131884728D01*
X135818476Y-131837109D01*
X135723238Y-131789490D01*
X135532761Y-131741871D01*
X135437523Y-131694252D01*
X135389904Y-131646633D01*
X135342285Y-131551395D01*
X135342285Y-131456157D01*
X135389904Y-131360919D01*
X135437523Y-131313300D01*
X135532761Y-131265680D01*
X135770857Y-131265680D01*
X135913714Y-131313300D01*
X134342286Y-129678061D02*
X134485143Y-129725680D01*
X134723238Y-129725680D01*
X134818476Y-129678061D01*
X134866095Y-129630442D01*
X134913714Y-129535204D01*
X134913714Y-129439966D01*
X134866095Y-129344728D01*
X134818476Y-129297109D01*
X134723238Y-129249490D01*
X134532762Y-129201871D01*
X134437524Y-129154252D01*
X134389905Y-129106633D01*
X134342286Y-129011395D01*
X134342286Y-128916157D01*
X134389905Y-128820919D01*
X134437524Y-128773300D01*
X134532762Y-128725680D01*
X134770857Y-128725680D01*
X134913714Y-128773300D01*
X135342286Y-129725680D02*
X135342286Y-128725680D01*
X135580381Y-128725680D01*
X135723238Y-128773300D01*
X135818476Y-128868538D01*
X135866095Y-128963776D01*
X135913714Y-129154252D01*
X135913714Y-129297109D01*
X135866095Y-129487585D01*
X135818476Y-129582823D01*
X135723238Y-129678061D01*
X135580381Y-129725680D01*
X135342286Y-129725680D01*
X136342286Y-129725680D02*
X136342286Y-128725680D01*
X137532762Y-128678061D02*
X136675619Y-129963776D01*
X137818476Y-129678061D02*
X137961333Y-129725680D01*
X138199428Y-129725680D01*
X138294667Y-129678061D01*
X138342286Y-129630442D01*
X138389905Y-129535204D01*
X138389905Y-129439966D01*
X138342286Y-129344728D01*
X138294667Y-129297109D01*
X138199428Y-129249490D01*
X138008952Y-129201871D01*
X137913714Y-129154252D01*
X137866095Y-129106633D01*
X137818476Y-129011395D01*
X137818476Y-128916157D01*
X137866095Y-128820919D01*
X137913714Y-128773300D01*
X138008952Y-128725680D01*
X138247047Y-128725680D01*
X138389905Y-128773300D01*
X138818476Y-129725680D02*
X138818476Y-128725680D01*
X139056571Y-128725680D01*
X139199428Y-128773300D01*
X139294667Y-128868538D01*
X139342286Y-128963776D01*
X139389905Y-129154252D01*
X139389905Y-129297109D01*
X139342286Y-129487585D01*
X139294667Y-129582823D01*
X139199428Y-129678061D01*
X139056571Y-129725680D01*
X138818476Y-129725680D01*
X139770857Y-129439966D02*
X140247047Y-129439966D01*
X139675619Y-129725680D02*
X140008952Y-128725680D01*
X140342286Y-129725680D01*
X134342286Y-127138061D02*
X134485143Y-127185680D01*
X134723238Y-127185680D01*
X134818476Y-127138061D01*
X134866095Y-127090442D01*
X134913714Y-126995204D01*
X134913714Y-126899966D01*
X134866095Y-126804728D01*
X134818476Y-126757109D01*
X134723238Y-126709490D01*
X134532762Y-126661871D01*
X134437524Y-126614252D01*
X134389905Y-126566633D01*
X134342286Y-126471395D01*
X134342286Y-126376157D01*
X134389905Y-126280919D01*
X134437524Y-126233300D01*
X134532762Y-126185680D01*
X134770857Y-126185680D01*
X134913714Y-126233300D01*
X135342286Y-127185680D02*
X135342286Y-126185680D01*
X135580381Y-126185680D01*
X135723238Y-126233300D01*
X135818476Y-126328538D01*
X135866095Y-126423776D01*
X135913714Y-126614252D01*
X135913714Y-126757109D01*
X135866095Y-126947585D01*
X135818476Y-127042823D01*
X135723238Y-127138061D01*
X135580381Y-127185680D01*
X135342286Y-127185680D01*
X136532762Y-126185680D02*
X136723238Y-126185680D01*
X136818476Y-126233300D01*
X136913714Y-126328538D01*
X136961333Y-126519014D01*
X136961333Y-126852347D01*
X136913714Y-127042823D01*
X136818476Y-127138061D01*
X136723238Y-127185680D01*
X136532762Y-127185680D01*
X136437524Y-127138061D01*
X136342286Y-127042823D01*
X136294667Y-126852347D01*
X136294667Y-126519014D01*
X136342286Y-126328538D01*
X136437524Y-126233300D01*
X136532762Y-126185680D01*
X138104191Y-126138061D02*
X137247048Y-127423776D01*
X138389905Y-126899966D02*
X138866095Y-126899966D01*
X138294667Y-127185680D02*
X138628000Y-126185680D01*
X138961333Y-127185680D01*
X139294667Y-127185680D02*
X139294667Y-126185680D01*
X139532762Y-126185680D01*
X139675619Y-126233300D01*
X139770857Y-126328538D01*
X139818476Y-126423776D01*
X139866095Y-126614252D01*
X139866095Y-126757109D01*
X139818476Y-126947585D01*
X139770857Y-127042823D01*
X139675619Y-127138061D01*
X139532762Y-127185680D01*
X139294667Y-127185680D01*
X140866095Y-127185680D02*
X140532762Y-126709490D01*
X140294667Y-127185680D02*
X140294667Y-126185680D01*
X140675619Y-126185680D01*
X140770857Y-126233300D01*
X140818476Y-126280919D01*
X140866095Y-126376157D01*
X140866095Y-126519014D01*
X140818476Y-126614252D01*
X140770857Y-126661871D01*
X140675619Y-126709490D01*
X140294667Y-126709490D01*
X134342285Y-124598061D02*
X134485142Y-124645680D01*
X134723238Y-124645680D01*
X134818476Y-124598061D01*
X134866095Y-124550442D01*
X134913714Y-124455204D01*
X134913714Y-124359966D01*
X134866095Y-124264728D01*
X134818476Y-124217109D01*
X134723238Y-124169490D01*
X134532762Y-124121871D01*
X134437523Y-124074252D01*
X134389904Y-124026633D01*
X134342285Y-123931395D01*
X134342285Y-123836157D01*
X134389904Y-123740919D01*
X134437523Y-123693300D01*
X134532762Y-123645680D01*
X134770857Y-123645680D01*
X134913714Y-123693300D01*
X135913714Y-124550442D02*
X135866095Y-124598061D01*
X135723238Y-124645680D01*
X135628000Y-124645680D01*
X135485142Y-124598061D01*
X135389904Y-124502823D01*
X135342285Y-124407585D01*
X135294666Y-124217109D01*
X135294666Y-124074252D01*
X135342285Y-123883776D01*
X135389904Y-123788538D01*
X135485142Y-123693300D01*
X135628000Y-123645680D01*
X135723238Y-123645680D01*
X135866095Y-123693300D01*
X135913714Y-123740919D01*
X136342285Y-124645680D02*
X136342285Y-123645680D01*
X136913714Y-124645680D02*
X136485142Y-124074252D01*
X136913714Y-123645680D02*
X136342285Y-124217109D01*
X138056571Y-123598061D02*
X137199428Y-124883776D01*
X138342285Y-124598061D02*
X138485142Y-124645680D01*
X138723238Y-124645680D01*
X138818476Y-124598061D01*
X138866095Y-124550442D01*
X138913714Y-124455204D01*
X138913714Y-124359966D01*
X138866095Y-124264728D01*
X138818476Y-124217109D01*
X138723238Y-124169490D01*
X138532762Y-124121871D01*
X138437523Y-124074252D01*
X138389904Y-124026633D01*
X138342285Y-123931395D01*
X138342285Y-123836157D01*
X138389904Y-123740919D01*
X138437523Y-123693300D01*
X138532762Y-123645680D01*
X138770857Y-123645680D01*
X138913714Y-123693300D01*
X139913714Y-124550442D02*
X139866095Y-124598061D01*
X139723238Y-124645680D01*
X139628000Y-124645680D01*
X139485142Y-124598061D01*
X139389904Y-124502823D01*
X139342285Y-124407585D01*
X139294666Y-124217109D01*
X139294666Y-124074252D01*
X139342285Y-123883776D01*
X139389904Y-123788538D01*
X139485142Y-123693300D01*
X139628000Y-123645680D01*
X139723238Y-123645680D01*
X139866095Y-123693300D01*
X139913714Y-123740919D01*
X140818476Y-124645680D02*
X140342285Y-124645680D01*
X140342285Y-123645680D01*
X134913714Y-121153300D02*
X134818476Y-121105680D01*
X134675619Y-121105680D01*
X134532761Y-121153300D01*
X134437523Y-121248538D01*
X134389904Y-121343776D01*
X134342285Y-121534252D01*
X134342285Y-121677109D01*
X134389904Y-121867585D01*
X134437523Y-121962823D01*
X134532761Y-122058061D01*
X134675619Y-122105680D01*
X134770857Y-122105680D01*
X134913714Y-122058061D01*
X134961333Y-122010442D01*
X134961333Y-121677109D01*
X134770857Y-121677109D01*
X135389904Y-122105680D02*
X135389904Y-121105680D01*
X135961333Y-122105680D01*
X135961333Y-121105680D01*
X136437523Y-122105680D02*
X136437523Y-121105680D01*
X136675619Y-121105680D01*
X136818476Y-121153300D01*
X136913714Y-121248538D01*
X136961333Y-121343776D01*
X137008952Y-121534252D01*
X137008952Y-121677109D01*
X136961333Y-121867585D01*
X136913714Y-121962823D01*
X136818476Y-122058061D01*
X136675619Y-122105680D01*
X136437523Y-122105680D01*
X134389905Y-119184728D02*
X135151809Y-119184728D01*
X134770857Y-119565680D02*
X134770857Y-118803776D01*
X135532762Y-118565680D02*
X136151809Y-118565680D01*
X135818476Y-118946633D01*
X135961333Y-118946633D01*
X136056571Y-118994252D01*
X136104190Y-119041871D01*
X136151809Y-119137109D01*
X136151809Y-119375204D01*
X136104190Y-119470442D01*
X136056571Y-119518061D01*
X135961333Y-119565680D01*
X135675619Y-119565680D01*
X135580381Y-119518061D01*
X135532762Y-119470442D01*
X136580381Y-119470442D02*
X136628000Y-119518061D01*
X136580381Y-119565680D01*
X136532762Y-119518061D01*
X136580381Y-119470442D01*
X136580381Y-119565680D01*
X136961333Y-118565680D02*
X137580381Y-118565680D01*
X137247047Y-118946633D01*
X137389905Y-118946633D01*
X137485143Y-118994252D01*
X137532762Y-119041871D01*
X137580381Y-119137109D01*
X137580381Y-119375204D01*
X137532762Y-119470442D01*
X137485143Y-119518061D01*
X137389905Y-119565680D01*
X137104190Y-119565680D01*
X137008952Y-119518061D01*
X136961333Y-119470442D01*
X137866095Y-118565680D02*
X138199428Y-119565680D01*
X138532762Y-118565680D01*
X134286761Y-116038380D02*
X134620095Y-117038380D01*
X134953428Y-116038380D01*
X135286761Y-117038380D02*
X135286761Y-116038380D01*
X135762952Y-117038380D02*
X135762952Y-116038380D01*
X136334380Y-117038380D01*
X136334380Y-116038380D01*
X130254380Y-127643000D02*
X130159142Y-127595380D01*
X130016285Y-127595380D01*
X129873427Y-127643000D01*
X129778189Y-127738238D01*
X129730570Y-127833476D01*
X129682951Y-128023952D01*
X129682951Y-128166809D01*
X129730570Y-128357285D01*
X129778189Y-128452523D01*
X129873427Y-128547761D01*
X130016285Y-128595380D01*
X130111523Y-128595380D01*
X130254380Y-128547761D01*
X130301999Y-128500142D01*
X130301999Y-128166809D01*
X130111523Y-128166809D01*
X130730570Y-128595380D02*
X130730570Y-127595380D01*
X131301999Y-128595380D01*
X131301999Y-127595380D01*
X131778189Y-128595380D02*
X131778189Y-127595380D01*
X132016285Y-127595380D01*
X132159142Y-127643000D01*
X132254380Y-127738238D01*
X132301999Y-127833476D01*
X132349618Y-128023952D01*
X132349618Y-128166809D01*
X132301999Y-128357285D01*
X132254380Y-128452523D01*
X132159142Y-128547761D01*
X132016285Y-128595380D01*
X131778189Y-128595380D01*
X129587714Y-125055380D02*
X130159142Y-125055380D01*
X129873428Y-126055380D02*
X129873428Y-125055380D01*
X130397238Y-125055380D02*
X131063904Y-126055380D01*
X131063904Y-125055380D02*
X130397238Y-126055380D01*
X130301999Y-123515380D02*
X129968666Y-123039190D01*
X129730570Y-123515380D02*
X129730570Y-122515380D01*
X130111523Y-122515380D01*
X130206761Y-122563000D01*
X130254380Y-122610619D01*
X130301999Y-122705857D01*
X130301999Y-122848714D01*
X130254380Y-122943952D01*
X130206761Y-122991571D01*
X130111523Y-123039190D01*
X129730570Y-123039190D01*
X130635332Y-122515380D02*
X131301999Y-123515380D01*
X131301999Y-122515380D02*
X130635332Y-123515380D01*
X129730571Y-120975380D02*
X129730571Y-119975380D01*
X130063904Y-120689666D01*
X130397238Y-119975380D01*
X130397238Y-120975380D01*
X130873428Y-120975380D02*
X130873428Y-119975380D01*
X129730571Y-118435380D02*
X129730571Y-117435380D01*
X130063904Y-118149666D01*
X130397237Y-117435380D01*
X130397237Y-118435380D01*
X131063904Y-117435380D02*
X131254380Y-117435380D01*
X131349618Y-117483000D01*
X131444856Y-117578238D01*
X131492475Y-117768714D01*
X131492475Y-118102047D01*
X131444856Y-118292523D01*
X131349618Y-118387761D01*
X131254380Y-118435380D01*
X131063904Y-118435380D01*
X130968666Y-118387761D01*
X130873428Y-118292523D01*
X130825809Y-118102047D01*
X130825809Y-117768714D01*
X130873428Y-117578238D01*
X130968666Y-117483000D01*
X131063904Y-117435380D01*
X129682951Y-115847761D02*
X129825808Y-115895380D01*
X130063904Y-115895380D01*
X130159142Y-115847761D01*
X130206761Y-115800142D01*
X130254380Y-115704904D01*
X130254380Y-115609666D01*
X130206761Y-115514428D01*
X130159142Y-115466809D01*
X130063904Y-115419190D01*
X129873427Y-115371571D01*
X129778189Y-115323952D01*
X129730570Y-115276333D01*
X129682951Y-115181095D01*
X129682951Y-115085857D01*
X129730570Y-114990619D01*
X129778189Y-114943000D01*
X129873427Y-114895380D01*
X130111523Y-114895380D01*
X130254380Y-114943000D01*
X131254380Y-115800142D02*
X131206761Y-115847761D01*
X131063904Y-115895380D01*
X130968666Y-115895380D01*
X130825808Y-115847761D01*
X130730570Y-115752523D01*
X130682951Y-115657285D01*
X130635332Y-115466809D01*
X130635332Y-115323952D01*
X130682951Y-115133476D01*
X130730570Y-115038238D01*
X130825808Y-114943000D01*
X130968666Y-114895380D01*
X131063904Y-114895380D01*
X131206761Y-114943000D01*
X131254380Y-114990619D01*
X131682951Y-115895380D02*
X131682951Y-114895380D01*
X132254380Y-115895380D02*
X131825808Y-115323952D01*
X132254380Y-114895380D02*
X131682951Y-115466809D01*
X129682952Y-113069666D02*
X130159142Y-113069666D01*
X129587714Y-113355380D02*
X129921047Y-112355380D01*
X130254380Y-113355380D01*
X131063904Y-112355380D02*
X130587714Y-112355380D01*
X130540095Y-112831571D01*
X130587714Y-112783952D01*
X130682952Y-112736333D01*
X130921047Y-112736333D01*
X131016285Y-112783952D01*
X131063904Y-112831571D01*
X131111523Y-112926809D01*
X131111523Y-113164904D01*
X131063904Y-113260142D01*
X131016285Y-113307761D01*
X130921047Y-113355380D01*
X130682952Y-113355380D01*
X130587714Y-113307761D01*
X130540095Y-113260142D01*
X129682952Y-110529666D02*
X130159142Y-110529666D01*
X129587714Y-110815380D02*
X129921047Y-109815380D01*
X130254380Y-110815380D01*
X131016285Y-110148714D02*
X131016285Y-110815380D01*
X130778190Y-109767761D02*
X130540095Y-110482047D01*
X131159142Y-110482047D01*
X129682952Y-107989666D02*
X130159142Y-107989666D01*
X129587714Y-108275380D02*
X129921047Y-107275380D01*
X130254380Y-108275380D01*
X130492476Y-107275380D02*
X131111523Y-107275380D01*
X130778190Y-107656333D01*
X130921047Y-107656333D01*
X131016285Y-107703952D01*
X131063904Y-107751571D01*
X131111523Y-107846809D01*
X131111523Y-108084904D01*
X131063904Y-108180142D01*
X131016285Y-108227761D01*
X130921047Y-108275380D01*
X130635333Y-108275380D01*
X130540095Y-108227761D01*
X130492476Y-108180142D01*
X129682952Y-105449666D02*
X130159142Y-105449666D01*
X129587714Y-105735380D02*
X129921047Y-104735380D01*
X130254380Y-105735380D01*
X130540095Y-104830619D02*
X130587714Y-104783000D01*
X130682952Y-104735380D01*
X130921047Y-104735380D01*
X131016285Y-104783000D01*
X131063904Y-104830619D01*
X131111523Y-104925857D01*
X131111523Y-105021095D01*
X131063904Y-105163952D01*
X130492476Y-105735380D01*
X131111523Y-105735380D01*
X129682952Y-102909666D02*
X130159142Y-102909666D01*
X129587714Y-103195380D02*
X129921047Y-102195380D01*
X130254380Y-103195380D01*
X131111523Y-103195380D02*
X130540095Y-103195380D01*
X130825809Y-103195380D02*
X130825809Y-102195380D01*
X130730571Y-102338238D01*
X130635333Y-102433476D01*
X130540095Y-102481095D01*
X129682952Y-100369666D02*
X130159142Y-100369666D01*
X129587714Y-100655380D02*
X129921047Y-99655380D01*
X130254380Y-100655380D01*
X130778190Y-99655380D02*
X130873428Y-99655380D01*
X130968666Y-99703000D01*
X131016285Y-99750619D01*
X131063904Y-99845857D01*
X131111523Y-100036333D01*
X131111523Y-100274428D01*
X131063904Y-100464904D01*
X131016285Y-100560142D01*
X130968666Y-100607761D01*
X130873428Y-100655380D01*
X130778190Y-100655380D01*
X130682952Y-100607761D01*
X130635333Y-100560142D01*
X130587714Y-100464904D01*
X130540095Y-100274428D01*
X130540095Y-100036333D01*
X130587714Y-99845857D01*
X130635333Y-99750619D01*
X130682952Y-99703000D01*
X130778190Y-99655380D01*
X130254380Y-97163000D02*
X130159142Y-97115380D01*
X130016285Y-97115380D01*
X129873427Y-97163000D01*
X129778189Y-97258238D01*
X129730570Y-97353476D01*
X129682951Y-97543952D01*
X129682951Y-97686809D01*
X129730570Y-97877285D01*
X129778189Y-97972523D01*
X129873427Y-98067761D01*
X130016285Y-98115380D01*
X130111523Y-98115380D01*
X130254380Y-98067761D01*
X130301999Y-98020142D01*
X130301999Y-97686809D01*
X130111523Y-97686809D01*
X130730570Y-98115380D02*
X130730570Y-97115380D01*
X131301999Y-98115380D01*
X131301999Y-97115380D01*
X131778189Y-98115380D02*
X131778189Y-97115380D01*
X132016285Y-97115380D01*
X132159142Y-97163000D01*
X132254380Y-97258238D01*
X132301999Y-97353476D01*
X132349618Y-97543952D01*
X132349618Y-97686809D01*
X132301999Y-97877285D01*
X132254380Y-97972523D01*
X132159142Y-98067761D01*
X132016285Y-98115380D01*
X131778189Y-98115380D01*
X129682952Y-95289666D02*
X130159142Y-95289666D01*
X129587714Y-95575380D02*
X129921047Y-94575380D01*
X130254380Y-95575380D01*
X131159142Y-95575380D02*
X130825809Y-95099190D01*
X130587714Y-95575380D02*
X130587714Y-94575380D01*
X130968666Y-94575380D01*
X131063904Y-94623000D01*
X131111523Y-94670619D01*
X131159142Y-94765857D01*
X131159142Y-94908714D01*
X131111523Y-95003952D01*
X131063904Y-95051571D01*
X130968666Y-95099190D01*
X130587714Y-95099190D01*
X131587714Y-95051571D02*
X131921047Y-95051571D01*
X132063904Y-95575380D02*
X131587714Y-95575380D01*
X131587714Y-94575380D01*
X132063904Y-94575380D01*
X132825809Y-95051571D02*
X132492476Y-95051571D01*
X132492476Y-95575380D02*
X132492476Y-94575380D01*
X132968666Y-94575380D01*
X129730570Y-92654428D02*
X130492475Y-92654428D01*
X130111523Y-93035380D02*
X130111523Y-92273476D01*
X130873427Y-92035380D02*
X131492475Y-92035380D01*
X131159142Y-92416333D01*
X131301999Y-92416333D01*
X131397237Y-92463952D01*
X131444856Y-92511571D01*
X131492475Y-92606809D01*
X131492475Y-92844904D01*
X131444856Y-92940142D01*
X131397237Y-92987761D01*
X131301999Y-93035380D01*
X131016285Y-93035380D01*
X130921046Y-92987761D01*
X130873427Y-92940142D01*
X131778189Y-92035380D02*
X132111523Y-93035380D01*
X132444856Y-92035380D01*
X129587713Y-90114428D02*
X129635332Y-90066809D01*
X129730570Y-90019190D01*
X129921046Y-90114428D01*
X130016284Y-90066809D01*
X130063903Y-90019190D01*
X131016284Y-90495380D02*
X130682951Y-90019190D01*
X130444856Y-90495380D02*
X130444856Y-89495380D01*
X130825808Y-89495380D01*
X130921046Y-89543000D01*
X130968665Y-89590619D01*
X131016284Y-89685857D01*
X131016284Y-89828714D01*
X130968665Y-89923952D01*
X130921046Y-89971571D01*
X130825808Y-90019190D01*
X130444856Y-90019190D01*
X131397237Y-90447761D02*
X131540094Y-90495380D01*
X131778189Y-90495380D01*
X131873427Y-90447761D01*
X131921046Y-90400142D01*
X131968665Y-90304904D01*
X131968665Y-90209666D01*
X131921046Y-90114428D01*
X131873427Y-90066809D01*
X131778189Y-90019190D01*
X131587713Y-89971571D01*
X131492475Y-89923952D01*
X131444856Y-89876333D01*
X131397237Y-89781095D01*
X131397237Y-89685857D01*
X131444856Y-89590619D01*
X131492475Y-89543000D01*
X131587713Y-89495380D01*
X131825808Y-89495380D01*
X131968665Y-89543000D01*
X132254380Y-89495380D02*
X132825808Y-89495380D01*
X132540094Y-90495380D02*
X132540094Y-89495380D01*
%TO.C,J1*%
X141398666Y-117054380D02*
X141398666Y-117768666D01*
X141351047Y-117911523D01*
X141255809Y-118006761D01*
X141112952Y-118054380D01*
X141017714Y-118054380D01*
X142398666Y-118054380D02*
X141827238Y-118054380D01*
X142112952Y-118054380D02*
X142112952Y-117054380D01*
X142017714Y-117197238D01*
X141922476Y-117292476D01*
X141827238Y-117340095D01*
%TO.C,J2*%
X138223666Y-85812380D02*
X138223666Y-86526666D01*
X138176047Y-86669523D01*
X138080809Y-86764761D01*
X137937952Y-86812380D01*
X137842714Y-86812380D01*
X138652238Y-85907619D02*
X138699857Y-85860000D01*
X138795095Y-85812380D01*
X139033190Y-85812380D01*
X139128428Y-85860000D01*
X139176047Y-85907619D01*
X139223666Y-86002857D01*
X139223666Y-86098095D01*
X139176047Y-86240952D01*
X138604619Y-86812380D01*
X139223666Y-86812380D01*
%TO.C,A1*%
X127987514Y-85459866D02*
X128463704Y-85459866D01*
X127892276Y-85745580D02*
X128225609Y-84745580D01*
X128558942Y-85745580D01*
X129416085Y-85745580D02*
X128844657Y-85745580D01*
X129130371Y-85745580D02*
X129130371Y-84745580D01*
X129035133Y-84888438D01*
X128939895Y-84983676D01*
X128844657Y-85031295D01*
D11*
%TO.C,J1*%
X132816600Y-115303300D02*
G75*
G03*
X130276600Y-117843300I1J-2540001D01*
G01*
X146786600Y-117843300D02*
G75*
G03*
X144246600Y-115303300I-2540001J-1D01*
G01*
X130276600Y-130543300D02*
G75*
G03*
X132816600Y-133083300I2540001J1D01*
G01*
X144246600Y-133083300D02*
G75*
G03*
X146786600Y-130543300I-1J2540001D01*
G01*
X146786600Y-117843300D02*
X146786600Y-130543300D01*
X130276600Y-130543300D02*
X130276600Y-117843300D01*
X132816600Y-115303300D02*
X144246600Y-115303300D01*
X144246600Y-133083300D02*
X132816600Y-133083300D01*
%TO.C,J2*%
X137617200Y-85191600D02*
X140157200Y-85191600D01*
X135077200Y-92811600D02*
X135077200Y-87731600D01*
X140157200Y-95351600D02*
X137617200Y-95351600D01*
X142697200Y-87731600D02*
X142697200Y-92811600D01*
X142697200Y-87731600D02*
G75*
G03*
X140157200Y-85191600I-2540001J-1D01*
G01*
X135077200Y-92811600D02*
G75*
G03*
X137617200Y-95351600I2540001J1D01*
G01*
X140157200Y-95351600D02*
G75*
G03*
X142697200Y-92811600I-1J2540001D01*
G01*
X137617200Y-85191600D02*
G75*
G03*
X135077200Y-87731600I1J-2540001D01*
G01*
D12*
%TO.C,A1*%
X126773200Y-91043000D02*
X126773200Y-89043000D01*
%TD*%
M02*
