M48
; DRILL file {KiCad (6.0.0)} date Sun Jan 23 09:20:36 2022
; FORMAT={-:-/ absolute / inch / decimal}
; #@! TF.CreationDate,2022-01-23T09:20:36-05:00
; #@! TF.GenerationSoftware,Kicad,Pcbnew,(6.0.0)
; #@! TF.FileFunction,Plated,1,2,PTH
FMAT,2
INCH
; #@! TA.AperFunction,Plated,PTH,ComponentDrill
T1C0.0315
; #@! TA.AperFunction,Plated,PTH,ComponentDrill
T2C0.0394
%
G90
G05
T1
X5.058Y-3.545
X5.058Y-3.645
X5.058Y-3.745
X5.058Y-3.845
X5.058Y-3.945
X5.058Y-4.045
X5.058Y-4.145
X5.058Y-4.245
X5.058Y-4.345
X5.058Y-4.445
X5.058Y-4.545
X5.058Y-4.645
X5.058Y-4.745
X5.058Y-4.845
X5.058Y-4.945
X5.058Y-5.045
X5.858Y-3.945
X5.858Y-4.045
X5.858Y-4.145
X5.858Y-4.245
X5.858Y-4.345
X5.858Y-4.445
X5.858Y-4.545
X5.858Y-4.645
X5.858Y-4.745
X5.858Y-4.845
X5.858Y-4.945
X5.858Y-5.045
T2
X5.229Y-4.5895
X5.229Y-4.6895
X5.229Y-4.7895
X5.229Y-4.8895
X5.229Y-4.9895
X5.229Y-5.0895
X5.229Y-5.1895
X5.368Y-3.674
X5.468Y-3.674
X5.568Y-3.674
T0
M30
