%TF.GenerationSoftware,KiCad,Pcbnew,(6.0.0)*%
%TF.CreationDate,2022-01-23T09:20:33-05:00*%
%TF.ProjectId,Featherwing-bme680-als-PT19-breakout,46656174-6865-4727-9769-6e672d626d65,rev?*%
%TF.SameCoordinates,Original*%
%TF.FileFunction,Copper,L2,Bot*%
%TF.FilePolarity,Positive*%
%FSLAX46Y46*%
G04 Gerber Fmt 4.6, Leading zero omitted, Abs format (unit mm)*
G04 Created by KiCad (PCBNEW (6.0.0)) date 2022-01-23 09:20:33*
%MOMM*%
%LPD*%
G01*
G04 APERTURE LIST*
%TA.AperFunction,ComponentPad*%
%ADD10C,1.778000*%
%TD*%
%TA.AperFunction,ComponentPad*%
%ADD11C,1.676400*%
%TD*%
%TA.AperFunction,ComponentPad*%
%ADD12R,1.600000X1.600000*%
%TD*%
%TA.AperFunction,ComponentPad*%
%ADD13C,1.600000*%
%TD*%
%TA.AperFunction,Conductor*%
%ADD14C,0.254000*%
%TD*%
G04 APERTURE END LIST*
D10*
%TO.P,J1,7,Pin_7*%
%TO.N,/CS*%
X132816600Y-131813300D03*
%TO.P,J1,6,Pin_6*%
%TO.N,/SDI{slash}SDA*%
X132816600Y-129273300D03*
%TO.P,J1,5,Pin_5*%
%TO.N,/SDO{slash}ADR*%
X132816600Y-126733300D03*
%TO.P,J1,4,Pin_4*%
%TO.N,/SCK{slash}SCL*%
X132816600Y-124193300D03*
%TO.P,J1,3,Pin_3*%
%TO.N,GND*%
X132816600Y-121653300D03*
%TO.P,J1,2,Pin_2*%
%TO.N,+3V3*%
X132816600Y-119113300D03*
%TO.P,J1,1,Pin_1*%
%TO.N,/VIN*%
X132816600Y-116573300D03*
%TD*%
D11*
%TO.P,J2,1,Pin_1*%
%TO.N,GND*%
X136347200Y-93319600D03*
%TO.P,J2,2,Pin_2*%
%TO.N,/OUT*%
X138887200Y-93319600D03*
%TO.P,J2,3,Pin_3*%
%TO.N,+3V3*%
X141427200Y-93319600D03*
%TD*%
D12*
%TO.P,A1,1,~{RESET}*%
%TO.N,/~RESET*%
X128473200Y-90043000D03*
D13*
%TO.P,A1,2,3V3*%
%TO.N,+3V3*%
X128473200Y-92583000D03*
%TO.P,A1,3,AREF*%
%TO.N,/AREF*%
X128473200Y-95123000D03*
%TO.P,A1,4,GND*%
%TO.N,GND*%
X128473200Y-97663000D03*
%TO.P,A1,5,DAC0/A0*%
%TO.N,/OUT*%
X128473200Y-100203000D03*
%TO.P,A1,6,A1*%
%TO.N,/A1*%
X128473200Y-102743000D03*
%TO.P,A1,7,A2*%
%TO.N,/A2*%
X128473200Y-105283000D03*
%TO.P,A1,8,A3*%
%TO.N,/A3*%
X128473200Y-107823000D03*
%TO.P,A1,9,A4*%
%TO.N,/A4*%
X128473200Y-110363000D03*
%TO.P,A1,10,A5*%
%TO.N,/A5*%
X128473200Y-112903000D03*
%TO.P,A1,11,SCK/D24*%
%TO.N,/SCK*%
X128473200Y-115443000D03*
%TO.P,A1,12,MOSI/D23*%
%TO.N,/MOSI*%
X128473200Y-117983000D03*
%TO.P,A1,13,MISO/D22*%
%TO.N,/MISO*%
X128473200Y-120523000D03*
%TO.P,A1,14,RX/D0*%
%TO.N,/RX{slash}D0*%
X128473200Y-123063000D03*
%TO.P,A1,15,TX/D1*%
%TO.N,/TX{slash}D1*%
X128473200Y-125603000D03*
%TO.P,A1,16,GND*%
%TO.N,GND*%
X128473200Y-128143000D03*
%TO.P,A1,17,SDA/D20*%
%TO.N,/SDI{slash}SDA*%
X148793200Y-128143000D03*
%TO.P,A1,18,SCL/D21*%
%TO.N,/SCK{slash}SCL*%
X148793200Y-125603000D03*
%TO.P,A1,19,D5*%
%TO.N,/D5*%
X148793200Y-123063000D03*
%TO.P,A1,20,D6*%
%TO.N,/D6*%
X148793200Y-120523000D03*
%TO.P,A1,21,D9*%
%TO.N,/D9*%
X148793200Y-117983000D03*
%TO.P,A1,22,D10*%
%TO.N,/D10*%
X148793200Y-115443000D03*
%TO.P,A1,23,D11*%
%TO.N,/D11*%
X148793200Y-112903000D03*
%TO.P,A1,24,D12*%
%TO.N,/D12*%
X148793200Y-110363000D03*
%TO.P,A1,25,D13*%
%TO.N,/D13*%
X148793200Y-107823000D03*
%TO.P,A1,26,USB*%
%TO.N,VBUS*%
X148793200Y-105283000D03*
%TO.P,A1,27,EN*%
%TO.N,/EN*%
X148793200Y-102743000D03*
%TO.P,A1,28,VBAT*%
%TO.N,+BATT*%
X148793200Y-100203000D03*
%TD*%
D14*
%TO.N,GND*%
X128473200Y-97663000D02*
X132003800Y-97663000D01*
X132003800Y-97663000D02*
X136347200Y-93319600D01*
%TO.N,/OUT*%
X132003800Y-100203000D02*
X128473200Y-100203000D01*
X138887200Y-93319600D02*
X132003800Y-100203000D01*
%TD*%
%TA.AperFunction,Conductor*%
%TO.N,GND*%
G36*
X147493257Y-84092500D02*
G01*
X147508058Y-84094805D01*
X147508061Y-84094805D01*
X147516930Y-84096186D01*
X147533199Y-84094059D01*
X147557767Y-84093266D01*
X147794544Y-84108785D01*
X147810885Y-84110936D01*
X148069494Y-84162377D01*
X148085413Y-84166643D01*
X148335083Y-84251394D01*
X148350311Y-84257701D01*
X148586796Y-84374323D01*
X148601069Y-84382564D01*
X148820302Y-84529050D01*
X148833377Y-84539083D01*
X149031621Y-84712938D01*
X149043262Y-84724579D01*
X149217117Y-84922823D01*
X149227150Y-84935898D01*
X149373636Y-85155131D01*
X149381877Y-85169404D01*
X149498499Y-85405889D01*
X149504806Y-85421117D01*
X149589557Y-85670787D01*
X149593823Y-85686706D01*
X149645264Y-85945315D01*
X149647415Y-85961657D01*
X149662464Y-86191269D01*
X149661439Y-86214304D01*
X149661396Y-86217854D01*
X149660014Y-86226730D01*
X149661838Y-86240678D01*
X149664136Y-86258251D01*
X149665200Y-86274589D01*
X149665200Y-98974154D01*
X149645198Y-99042275D01*
X149591542Y-99088768D01*
X149521268Y-99098872D01*
X149466930Y-99077367D01*
X149449949Y-99065477D01*
X149444967Y-99063154D01*
X149444962Y-99063151D01*
X149247425Y-98971039D01*
X149247424Y-98971039D01*
X149242443Y-98968716D01*
X149237135Y-98967294D01*
X149237133Y-98967293D01*
X149026602Y-98910881D01*
X149026600Y-98910881D01*
X149021287Y-98909457D01*
X148793200Y-98889502D01*
X148565113Y-98909457D01*
X148559800Y-98910881D01*
X148559798Y-98910881D01*
X148349267Y-98967293D01*
X148349265Y-98967294D01*
X148343957Y-98968716D01*
X148338976Y-98971039D01*
X148338975Y-98971039D01*
X148141438Y-99063151D01*
X148141433Y-99063154D01*
X148136451Y-99065477D01*
X148087069Y-99100055D01*
X147953411Y-99193643D01*
X147953408Y-99193645D01*
X147948900Y-99196802D01*
X147787002Y-99358700D01*
X147655677Y-99546251D01*
X147653354Y-99551233D01*
X147653351Y-99551238D01*
X147645768Y-99567500D01*
X147558916Y-99753757D01*
X147499657Y-99974913D01*
X147479702Y-100203000D01*
X147499657Y-100431087D01*
X147558916Y-100652243D01*
X147561239Y-100657224D01*
X147561239Y-100657225D01*
X147653351Y-100854762D01*
X147653354Y-100854767D01*
X147655677Y-100859749D01*
X147787002Y-101047300D01*
X147948900Y-101209198D01*
X147953408Y-101212355D01*
X147953411Y-101212357D01*
X148031589Y-101267098D01*
X148136451Y-101340523D01*
X148141433Y-101342846D01*
X148141438Y-101342849D01*
X148175657Y-101358805D01*
X148228942Y-101405722D01*
X148248403Y-101473999D01*
X148227861Y-101541959D01*
X148175657Y-101587195D01*
X148141438Y-101603151D01*
X148141433Y-101603154D01*
X148136451Y-101605477D01*
X148087069Y-101640055D01*
X147953411Y-101733643D01*
X147953408Y-101733645D01*
X147948900Y-101736802D01*
X147787002Y-101898700D01*
X147655677Y-102086251D01*
X147653354Y-102091233D01*
X147653351Y-102091238D01*
X147561239Y-102288775D01*
X147558916Y-102293757D01*
X147499657Y-102514913D01*
X147479702Y-102743000D01*
X147499657Y-102971087D01*
X147558916Y-103192243D01*
X147561239Y-103197224D01*
X147561239Y-103197225D01*
X147653351Y-103394762D01*
X147653354Y-103394767D01*
X147655677Y-103399749D01*
X147787002Y-103587300D01*
X147948900Y-103749198D01*
X147953408Y-103752355D01*
X147953411Y-103752357D01*
X148031589Y-103807098D01*
X148136451Y-103880523D01*
X148141433Y-103882846D01*
X148141438Y-103882849D01*
X148175657Y-103898805D01*
X148228942Y-103945722D01*
X148248403Y-104013999D01*
X148227861Y-104081959D01*
X148175657Y-104127195D01*
X148141438Y-104143151D01*
X148141433Y-104143154D01*
X148136451Y-104145477D01*
X148087069Y-104180055D01*
X147953411Y-104273643D01*
X147953408Y-104273645D01*
X147948900Y-104276802D01*
X147787002Y-104438700D01*
X147655677Y-104626251D01*
X147653354Y-104631233D01*
X147653351Y-104631238D01*
X147561239Y-104828775D01*
X147558916Y-104833757D01*
X147499657Y-105054913D01*
X147479702Y-105283000D01*
X147499657Y-105511087D01*
X147558916Y-105732243D01*
X147561239Y-105737224D01*
X147561239Y-105737225D01*
X147653351Y-105934762D01*
X147653354Y-105934767D01*
X147655677Y-105939749D01*
X147787002Y-106127300D01*
X147948900Y-106289198D01*
X147953408Y-106292355D01*
X147953411Y-106292357D01*
X148031589Y-106347098D01*
X148136451Y-106420523D01*
X148141433Y-106422846D01*
X148141438Y-106422849D01*
X148175657Y-106438805D01*
X148228942Y-106485722D01*
X148248403Y-106553999D01*
X148227861Y-106621959D01*
X148175657Y-106667195D01*
X148141438Y-106683151D01*
X148141433Y-106683154D01*
X148136451Y-106685477D01*
X148087069Y-106720055D01*
X147953411Y-106813643D01*
X147953408Y-106813645D01*
X147948900Y-106816802D01*
X147787002Y-106978700D01*
X147655677Y-107166251D01*
X147653354Y-107171233D01*
X147653351Y-107171238D01*
X147561239Y-107368775D01*
X147558916Y-107373757D01*
X147499657Y-107594913D01*
X147479702Y-107823000D01*
X147499657Y-108051087D01*
X147558916Y-108272243D01*
X147561239Y-108277224D01*
X147561239Y-108277225D01*
X147653351Y-108474762D01*
X147653354Y-108474767D01*
X147655677Y-108479749D01*
X147787002Y-108667300D01*
X147948900Y-108829198D01*
X147953408Y-108832355D01*
X147953411Y-108832357D01*
X148031589Y-108887098D01*
X148136451Y-108960523D01*
X148141433Y-108962846D01*
X148141438Y-108962849D01*
X148175657Y-108978805D01*
X148228942Y-109025722D01*
X148248403Y-109093999D01*
X148227861Y-109161959D01*
X148175657Y-109207195D01*
X148141438Y-109223151D01*
X148141433Y-109223154D01*
X148136451Y-109225477D01*
X148087069Y-109260055D01*
X147953411Y-109353643D01*
X147953408Y-109353645D01*
X147948900Y-109356802D01*
X147787002Y-109518700D01*
X147655677Y-109706251D01*
X147653354Y-109711233D01*
X147653351Y-109711238D01*
X147561239Y-109908775D01*
X147558916Y-109913757D01*
X147499657Y-110134913D01*
X147479702Y-110363000D01*
X147499657Y-110591087D01*
X147558916Y-110812243D01*
X147561239Y-110817224D01*
X147561239Y-110817225D01*
X147653351Y-111014762D01*
X147653354Y-111014767D01*
X147655677Y-111019749D01*
X147787002Y-111207300D01*
X147948900Y-111369198D01*
X147953408Y-111372355D01*
X147953411Y-111372357D01*
X148031589Y-111427098D01*
X148136451Y-111500523D01*
X148141433Y-111502846D01*
X148141438Y-111502849D01*
X148175657Y-111518805D01*
X148228942Y-111565722D01*
X148248403Y-111633999D01*
X148227861Y-111701959D01*
X148175657Y-111747195D01*
X148141438Y-111763151D01*
X148141433Y-111763154D01*
X148136451Y-111765477D01*
X148087069Y-111800055D01*
X147953411Y-111893643D01*
X147953408Y-111893645D01*
X147948900Y-111896802D01*
X147787002Y-112058700D01*
X147655677Y-112246251D01*
X147653354Y-112251233D01*
X147653351Y-112251238D01*
X147561239Y-112448775D01*
X147558916Y-112453757D01*
X147499657Y-112674913D01*
X147479702Y-112903000D01*
X147499657Y-113131087D01*
X147558916Y-113352243D01*
X147561239Y-113357224D01*
X147561239Y-113357225D01*
X147653351Y-113554762D01*
X147653354Y-113554767D01*
X147655677Y-113559749D01*
X147787002Y-113747300D01*
X147948900Y-113909198D01*
X147953408Y-113912355D01*
X147953411Y-113912357D01*
X148031589Y-113967098D01*
X148136451Y-114040523D01*
X148141433Y-114042846D01*
X148141438Y-114042849D01*
X148175657Y-114058805D01*
X148228942Y-114105722D01*
X148248403Y-114173999D01*
X148227861Y-114241959D01*
X148175657Y-114287195D01*
X148141438Y-114303151D01*
X148141433Y-114303154D01*
X148136451Y-114305477D01*
X148087069Y-114340055D01*
X147953411Y-114433643D01*
X147953408Y-114433645D01*
X147948900Y-114436802D01*
X147787002Y-114598700D01*
X147655677Y-114786251D01*
X147653354Y-114791233D01*
X147653351Y-114791238D01*
X147561239Y-114988775D01*
X147558916Y-114993757D01*
X147557494Y-114999065D01*
X147557493Y-114999067D01*
X147501081Y-115209598D01*
X147499657Y-115214913D01*
X147479702Y-115443000D01*
X147499657Y-115671087D01*
X147501081Y-115676400D01*
X147501081Y-115676402D01*
X147557068Y-115885345D01*
X147558916Y-115892243D01*
X147561239Y-115897224D01*
X147561239Y-115897225D01*
X147653351Y-116094762D01*
X147653354Y-116094767D01*
X147655677Y-116099749D01*
X147787002Y-116287300D01*
X147948900Y-116449198D01*
X147953408Y-116452355D01*
X147953411Y-116452357D01*
X148031589Y-116507098D01*
X148136451Y-116580523D01*
X148141433Y-116582846D01*
X148141438Y-116582849D01*
X148175657Y-116598805D01*
X148228942Y-116645722D01*
X148248403Y-116713999D01*
X148227861Y-116781959D01*
X148175657Y-116827195D01*
X148141438Y-116843151D01*
X148141433Y-116843154D01*
X148136451Y-116845477D01*
X148087069Y-116880055D01*
X147953411Y-116973643D01*
X147953408Y-116973645D01*
X147948900Y-116976802D01*
X147787002Y-117138700D01*
X147655677Y-117326251D01*
X147653354Y-117331233D01*
X147653351Y-117331238D01*
X147561239Y-117528775D01*
X147558916Y-117533757D01*
X147557494Y-117539065D01*
X147557493Y-117539067D01*
X147508479Y-117721989D01*
X147499657Y-117754913D01*
X147479702Y-117983000D01*
X147499657Y-118211087D01*
X147501081Y-118216400D01*
X147501081Y-118216402D01*
X147557068Y-118425345D01*
X147558916Y-118432243D01*
X147561239Y-118437224D01*
X147561239Y-118437225D01*
X147653351Y-118634762D01*
X147653354Y-118634767D01*
X147655677Y-118639749D01*
X147787002Y-118827300D01*
X147948900Y-118989198D01*
X147953408Y-118992355D01*
X147953411Y-118992357D01*
X148031589Y-119047098D01*
X148136451Y-119120523D01*
X148141433Y-119122846D01*
X148141438Y-119122849D01*
X148175657Y-119138805D01*
X148228942Y-119185722D01*
X148248403Y-119253999D01*
X148227861Y-119321959D01*
X148175657Y-119367195D01*
X148141438Y-119383151D01*
X148141433Y-119383154D01*
X148136451Y-119385477D01*
X148087069Y-119420055D01*
X147953411Y-119513643D01*
X147953408Y-119513645D01*
X147948900Y-119516802D01*
X147787002Y-119678700D01*
X147655677Y-119866251D01*
X147653354Y-119871233D01*
X147653351Y-119871238D01*
X147561239Y-120068775D01*
X147558916Y-120073757D01*
X147557494Y-120079065D01*
X147557493Y-120079067D01*
X147508479Y-120261989D01*
X147499657Y-120294913D01*
X147479702Y-120523000D01*
X147499657Y-120751087D01*
X147558916Y-120972243D01*
X147561239Y-120977224D01*
X147561239Y-120977225D01*
X147653351Y-121174762D01*
X147653354Y-121174767D01*
X147655677Y-121179749D01*
X147787002Y-121367300D01*
X147948900Y-121529198D01*
X147953408Y-121532355D01*
X147953411Y-121532357D01*
X148031589Y-121587098D01*
X148136451Y-121660523D01*
X148141433Y-121662846D01*
X148141438Y-121662849D01*
X148175657Y-121678805D01*
X148228942Y-121725722D01*
X148248403Y-121793999D01*
X148227861Y-121861959D01*
X148175657Y-121907195D01*
X148141438Y-121923151D01*
X148141433Y-121923154D01*
X148136451Y-121925477D01*
X148087069Y-121960055D01*
X147953411Y-122053643D01*
X147953408Y-122053645D01*
X147948900Y-122056802D01*
X147787002Y-122218700D01*
X147655677Y-122406251D01*
X147653354Y-122411233D01*
X147653351Y-122411238D01*
X147644555Y-122430102D01*
X147558916Y-122613757D01*
X147557494Y-122619065D01*
X147557493Y-122619067D01*
X147501081Y-122829598D01*
X147499657Y-122834913D01*
X147479702Y-123063000D01*
X147499657Y-123291087D01*
X147501081Y-123296400D01*
X147501081Y-123296402D01*
X147557068Y-123505345D01*
X147558916Y-123512243D01*
X147561239Y-123517224D01*
X147561239Y-123517225D01*
X147653351Y-123714762D01*
X147653354Y-123714767D01*
X147655677Y-123719749D01*
X147787002Y-123907300D01*
X147948900Y-124069198D01*
X147953408Y-124072355D01*
X147953411Y-124072357D01*
X148031589Y-124127098D01*
X148136451Y-124200523D01*
X148141433Y-124202846D01*
X148141438Y-124202849D01*
X148175657Y-124218805D01*
X148228942Y-124265722D01*
X148248403Y-124333999D01*
X148227861Y-124401959D01*
X148175657Y-124447195D01*
X148141438Y-124463151D01*
X148141433Y-124463154D01*
X148136451Y-124465477D01*
X148087069Y-124500055D01*
X147953411Y-124593643D01*
X147953408Y-124593645D01*
X147948900Y-124596802D01*
X147787002Y-124758700D01*
X147655677Y-124946251D01*
X147653354Y-124951233D01*
X147653351Y-124951238D01*
X147561239Y-125148775D01*
X147558916Y-125153757D01*
X147557494Y-125159065D01*
X147557493Y-125159067D01*
X147508479Y-125341989D01*
X147499657Y-125374913D01*
X147479702Y-125603000D01*
X147499657Y-125831087D01*
X147501081Y-125836400D01*
X147501081Y-125836402D01*
X147557068Y-126045345D01*
X147558916Y-126052243D01*
X147561239Y-126057224D01*
X147561239Y-126057225D01*
X147653351Y-126254762D01*
X147653354Y-126254767D01*
X147655677Y-126259749D01*
X147787002Y-126447300D01*
X147948900Y-126609198D01*
X147953408Y-126612355D01*
X147953411Y-126612357D01*
X148031589Y-126667098D01*
X148136451Y-126740523D01*
X148141433Y-126742846D01*
X148141438Y-126742849D01*
X148175657Y-126758805D01*
X148228942Y-126805722D01*
X148248403Y-126873999D01*
X148227861Y-126941959D01*
X148175657Y-126987195D01*
X148141438Y-127003151D01*
X148141433Y-127003154D01*
X148136451Y-127005477D01*
X148062957Y-127056938D01*
X147953411Y-127133643D01*
X147953408Y-127133645D01*
X147948900Y-127136802D01*
X147787002Y-127298700D01*
X147655677Y-127486251D01*
X147653354Y-127491233D01*
X147653351Y-127491238D01*
X147561239Y-127688775D01*
X147558916Y-127693757D01*
X147557494Y-127699065D01*
X147557493Y-127699067D01*
X147508479Y-127881989D01*
X147499657Y-127914913D01*
X147479702Y-128143000D01*
X147499657Y-128371087D01*
X147501081Y-128376400D01*
X147501081Y-128376402D01*
X147557068Y-128585345D01*
X147558916Y-128592243D01*
X147561239Y-128597224D01*
X147561239Y-128597225D01*
X147653351Y-128794762D01*
X147653354Y-128794767D01*
X147655677Y-128799749D01*
X147787002Y-128987300D01*
X147948900Y-129149198D01*
X147953408Y-129152355D01*
X147953411Y-129152357D01*
X148031589Y-129207098D01*
X148136451Y-129280523D01*
X148141433Y-129282846D01*
X148141438Y-129282849D01*
X148330987Y-129371236D01*
X148343957Y-129377284D01*
X148349265Y-129378706D01*
X148349267Y-129378707D01*
X148559798Y-129435119D01*
X148559800Y-129435119D01*
X148565113Y-129436543D01*
X148793200Y-129456498D01*
X149021287Y-129436543D01*
X149026600Y-129435119D01*
X149026602Y-129435119D01*
X149237133Y-129378707D01*
X149237135Y-129378706D01*
X149242443Y-129377284D01*
X149255413Y-129371236D01*
X149444962Y-129282849D01*
X149444967Y-129282846D01*
X149449949Y-129280523D01*
X149466929Y-129268633D01*
X149534201Y-129245945D01*
X149603062Y-129263229D01*
X149651647Y-129314998D01*
X149665200Y-129371846D01*
X149665200Y-131903672D01*
X149663700Y-131923056D01*
X149660014Y-131946730D01*
X149662141Y-131962999D01*
X149662934Y-131987567D01*
X149647415Y-132224344D01*
X149645264Y-132240685D01*
X149593823Y-132499294D01*
X149589557Y-132515213D01*
X149504806Y-132764883D01*
X149498499Y-132780111D01*
X149381877Y-133016596D01*
X149373636Y-133030869D01*
X149227150Y-133250102D01*
X149217117Y-133263177D01*
X149043262Y-133461421D01*
X149031621Y-133473062D01*
X148833377Y-133646917D01*
X148820302Y-133656950D01*
X148601069Y-133803436D01*
X148586796Y-133811677D01*
X148350311Y-133928299D01*
X148335083Y-133934606D01*
X148085413Y-134019357D01*
X148069494Y-134023623D01*
X147810885Y-134075064D01*
X147794543Y-134077215D01*
X147564931Y-134092264D01*
X147541896Y-134091239D01*
X147538346Y-134091196D01*
X147529470Y-134089814D01*
X147500962Y-134093542D01*
X147497949Y-134093936D01*
X147481611Y-134095000D01*
X129792528Y-134095000D01*
X129773143Y-134093500D01*
X129758342Y-134091195D01*
X129758339Y-134091195D01*
X129749470Y-134089814D01*
X129733201Y-134091941D01*
X129708633Y-134092734D01*
X129471856Y-134077215D01*
X129455515Y-134075064D01*
X129196906Y-134023623D01*
X129180987Y-134019357D01*
X128931317Y-133934606D01*
X128916089Y-133928299D01*
X128679604Y-133811677D01*
X128665331Y-133803436D01*
X128446098Y-133656950D01*
X128433023Y-133646917D01*
X128234779Y-133473062D01*
X128223138Y-133461421D01*
X128049283Y-133263177D01*
X128039250Y-133250102D01*
X127892764Y-133030869D01*
X127884523Y-133016596D01*
X127767901Y-132780111D01*
X127761594Y-132764883D01*
X127676843Y-132515213D01*
X127672577Y-132499294D01*
X127621136Y-132240684D01*
X127618985Y-132224343D01*
X127604174Y-131998376D01*
X127605347Y-131975218D01*
X127605029Y-131975189D01*
X127605464Y-131970333D01*
X127606271Y-131965539D01*
X127606424Y-131953000D01*
X127602473Y-131925412D01*
X127601200Y-131907549D01*
X127601200Y-131779039D01*
X131414729Y-131779039D01*
X131427957Y-132008461D01*
X131478478Y-132232642D01*
X131564936Y-132445561D01*
X131567633Y-132449962D01*
X131567634Y-132449964D01*
X131682311Y-132637099D01*
X131685008Y-132641500D01*
X131835469Y-132815198D01*
X132012279Y-132961989D01*
X132210690Y-133077931D01*
X132215510Y-133079771D01*
X132215515Y-133079774D01*
X132321896Y-133120396D01*
X132425374Y-133159910D01*
X132430442Y-133160941D01*
X132430445Y-133160942D01*
X132541134Y-133183462D01*
X132650563Y-133205726D01*
X132655736Y-133205916D01*
X132655739Y-133205916D01*
X132875048Y-133213957D01*
X132875052Y-133213957D01*
X132880212Y-133214146D01*
X132885332Y-133213490D01*
X132885334Y-133213490D01*
X133103025Y-133185604D01*
X133103028Y-133185603D01*
X133108152Y-133184947D01*
X133328263Y-133118910D01*
X133534633Y-133017811D01*
X133721719Y-132884364D01*
X133884498Y-132722152D01*
X134018597Y-132535533D01*
X134036508Y-132499294D01*
X134118122Y-132334158D01*
X134120416Y-132329517D01*
X134147406Y-132240684D01*
X134185717Y-132114591D01*
X134185718Y-132114585D01*
X134187221Y-132109639D01*
X134204918Y-131975218D01*
X134216779Y-131885123D01*
X134216779Y-131885119D01*
X134217216Y-131881802D01*
X134218890Y-131813300D01*
X134212658Y-131737494D01*
X134200484Y-131589421D01*
X134200483Y-131589415D01*
X134200060Y-131584270D01*
X134144077Y-131361390D01*
X134052443Y-131150647D01*
X134049637Y-131146309D01*
X133930430Y-130962043D01*
X133930428Y-130962040D01*
X133927620Y-130957700D01*
X133772959Y-130787730D01*
X133768908Y-130784531D01*
X133768904Y-130784527D01*
X133596669Y-130648504D01*
X133596664Y-130648501D01*
X133592615Y-130645303D01*
X133592190Y-130645068D01*
X133547396Y-130591752D01*
X133538366Y-130521332D01*
X133568840Y-130457208D01*
X133589626Y-130438585D01*
X133717516Y-130347362D01*
X133721719Y-130344364D01*
X133884498Y-130182152D01*
X134018597Y-129995533D01*
X134120416Y-129789517D01*
X134136339Y-129737108D01*
X134185717Y-129574591D01*
X134185718Y-129574585D01*
X134187221Y-129569639D01*
X134204996Y-129434625D01*
X134216779Y-129345123D01*
X134216779Y-129345119D01*
X134217216Y-129341802D01*
X134217871Y-129314998D01*
X134218808Y-129276665D01*
X134218808Y-129276661D01*
X134218890Y-129273300D01*
X134208687Y-129149198D01*
X134200484Y-129049421D01*
X134200483Y-129049415D01*
X134200060Y-129044270D01*
X134144077Y-128821390D01*
X134052443Y-128610647D01*
X134037102Y-128586933D01*
X133930430Y-128422043D01*
X133930428Y-128422040D01*
X133927620Y-128417700D01*
X133885206Y-128371087D01*
X133776437Y-128251552D01*
X133776435Y-128251551D01*
X133772959Y-128247730D01*
X133768908Y-128244531D01*
X133768904Y-128244527D01*
X133596669Y-128108504D01*
X133596664Y-128108501D01*
X133592615Y-128105303D01*
X133592190Y-128105068D01*
X133547396Y-128051752D01*
X133538366Y-127981332D01*
X133568840Y-127917208D01*
X133589626Y-127898585D01*
X133717516Y-127807362D01*
X133721719Y-127804364D01*
X133884498Y-127642152D01*
X134018597Y-127455533D01*
X134031887Y-127428644D01*
X134118122Y-127254158D01*
X134120416Y-127249517D01*
X134146246Y-127164502D01*
X134185717Y-127034591D01*
X134185718Y-127034585D01*
X134187221Y-127029639D01*
X134217216Y-126801802D01*
X134217871Y-126774998D01*
X134218808Y-126736665D01*
X134218808Y-126736661D01*
X134218890Y-126733300D01*
X134208687Y-126609198D01*
X134200484Y-126509421D01*
X134200483Y-126509415D01*
X134200060Y-126504270D01*
X134144077Y-126281390D01*
X134052443Y-126070647D01*
X134037102Y-126046933D01*
X133930430Y-125882043D01*
X133930428Y-125882040D01*
X133927620Y-125877700D01*
X133885206Y-125831087D01*
X133776437Y-125711552D01*
X133776435Y-125711551D01*
X133772959Y-125707730D01*
X133768908Y-125704531D01*
X133768904Y-125704527D01*
X133596669Y-125568504D01*
X133596664Y-125568501D01*
X133592615Y-125565303D01*
X133592190Y-125565068D01*
X133547396Y-125511752D01*
X133538366Y-125441332D01*
X133568840Y-125377208D01*
X133589626Y-125358585D01*
X133717516Y-125267362D01*
X133721719Y-125264364D01*
X133884498Y-125102152D01*
X134018597Y-124915533D01*
X134120416Y-124709517D01*
X134146246Y-124624502D01*
X134185717Y-124494591D01*
X134185718Y-124494585D01*
X134187221Y-124489639D01*
X134217216Y-124261802D01*
X134217871Y-124234998D01*
X134218808Y-124196665D01*
X134218808Y-124196661D01*
X134218890Y-124193300D01*
X134208687Y-124069198D01*
X134200484Y-123969421D01*
X134200483Y-123969415D01*
X134200060Y-123964270D01*
X134144077Y-123741390D01*
X134052443Y-123530647D01*
X134037102Y-123506933D01*
X133930430Y-123342043D01*
X133930428Y-123342040D01*
X133927620Y-123337700D01*
X133885206Y-123291087D01*
X133776437Y-123171552D01*
X133776435Y-123171551D01*
X133772959Y-123167730D01*
X133768908Y-123164531D01*
X133768904Y-123164527D01*
X133596672Y-123028507D01*
X133592615Y-123025303D01*
X133591824Y-123024867D01*
X133546951Y-122971461D01*
X133537916Y-122901042D01*
X133568388Y-122836917D01*
X133589179Y-122818288D01*
X133593810Y-122814985D01*
X133602209Y-122804287D01*
X133595222Y-122791133D01*
X132829411Y-122025321D01*
X132815468Y-122017708D01*
X132813634Y-122017839D01*
X132807020Y-122022090D01*
X132034821Y-122794290D01*
X132028064Y-122806665D01*
X132033345Y-122813720D01*
X132034384Y-122814327D01*
X132083108Y-122865965D01*
X132096179Y-122935748D01*
X132069448Y-123001520D01*
X132046467Y-123023875D01*
X131987066Y-123068475D01*
X131885583Y-123144670D01*
X131882011Y-123148408D01*
X131740585Y-123296402D01*
X131726816Y-123310810D01*
X131597316Y-123500650D01*
X131500561Y-123709092D01*
X131439148Y-123930537D01*
X131414729Y-124159039D01*
X131427957Y-124388461D01*
X131429092Y-124393498D01*
X131429093Y-124393504D01*
X131477341Y-124607597D01*
X131478478Y-124612642D01*
X131564936Y-124825561D01*
X131685008Y-125021500D01*
X131835469Y-125195198D01*
X132012279Y-125341989D01*
X132016743Y-125344597D01*
X132016745Y-125344599D01*
X132033952Y-125354654D01*
X132082675Y-125406294D01*
X132095745Y-125476077D01*
X132069012Y-125541848D01*
X132046033Y-125564201D01*
X131987066Y-125608475D01*
X131885583Y-125684670D01*
X131882011Y-125688408D01*
X131740585Y-125836402D01*
X131726816Y-125850810D01*
X131597316Y-126040650D01*
X131500561Y-126249092D01*
X131439148Y-126470537D01*
X131414729Y-126699039D01*
X131427957Y-126928461D01*
X131429092Y-126933498D01*
X131429093Y-126933504D01*
X131477341Y-127147597D01*
X131478478Y-127152642D01*
X131564936Y-127365561D01*
X131685008Y-127561500D01*
X131835469Y-127735198D01*
X132012279Y-127881989D01*
X132016743Y-127884597D01*
X132016745Y-127884599D01*
X132033952Y-127894654D01*
X132082675Y-127946294D01*
X132095745Y-128016077D01*
X132069012Y-128081848D01*
X132046033Y-128104201D01*
X131987066Y-128148475D01*
X131885583Y-128224670D01*
X131882011Y-128228408D01*
X131740585Y-128376402D01*
X131726816Y-128390810D01*
X131597316Y-128580650D01*
X131500561Y-128789092D01*
X131439148Y-129010537D01*
X131414729Y-129239039D01*
X131427957Y-129468461D01*
X131478478Y-129692642D01*
X131564936Y-129905561D01*
X131685008Y-130101500D01*
X131835469Y-130275198D01*
X132012279Y-130421989D01*
X132016743Y-130424597D01*
X132016745Y-130424599D01*
X132033952Y-130434654D01*
X132082675Y-130486294D01*
X132095745Y-130556077D01*
X132069012Y-130621848D01*
X132046033Y-130644201D01*
X132043491Y-130646110D01*
X131885583Y-130764670D01*
X131726816Y-130930810D01*
X131597316Y-131120650D01*
X131500561Y-131329092D01*
X131439148Y-131550537D01*
X131414729Y-131779039D01*
X127601200Y-131779039D01*
X127601200Y-129371236D01*
X127621202Y-129303115D01*
X127674858Y-129256622D01*
X127745132Y-129246518D01*
X127799470Y-129268022D01*
X127812195Y-129276932D01*
X127821689Y-129282414D01*
X128019147Y-129374490D01*
X128029439Y-129378236D01*
X128239888Y-129434625D01*
X128250681Y-129436528D01*
X128467725Y-129455517D01*
X128478675Y-129455517D01*
X128695719Y-129436528D01*
X128706512Y-129434625D01*
X128916961Y-129378236D01*
X128927253Y-129374490D01*
X129124711Y-129282414D01*
X129134206Y-129276931D01*
X129186248Y-129240491D01*
X129194624Y-129230012D01*
X129187556Y-129216566D01*
X128203085Y-128232095D01*
X128169059Y-128169783D01*
X128170894Y-128144132D01*
X128837608Y-128144132D01*
X128837739Y-128145965D01*
X128841990Y-128152580D01*
X129547487Y-128858077D01*
X129559262Y-128864507D01*
X129571277Y-128855211D01*
X129607131Y-128804006D01*
X129612614Y-128794511D01*
X129704690Y-128597053D01*
X129708436Y-128586761D01*
X129764825Y-128376312D01*
X129766728Y-128365519D01*
X129785717Y-128148475D01*
X129785717Y-128137525D01*
X129766728Y-127920481D01*
X129764825Y-127909688D01*
X129708436Y-127699239D01*
X129704690Y-127688947D01*
X129612614Y-127491489D01*
X129607131Y-127481994D01*
X129570691Y-127429952D01*
X129560212Y-127421576D01*
X129546766Y-127428644D01*
X128845222Y-128130188D01*
X128837608Y-128144132D01*
X128170894Y-128144132D01*
X128174124Y-128098968D01*
X128203085Y-128053905D01*
X129188277Y-127068713D01*
X129194707Y-127056938D01*
X129185411Y-127044923D01*
X129134206Y-127009069D01*
X129124711Y-127003586D01*
X129090151Y-126987471D01*
X129036866Y-126940554D01*
X129017405Y-126872277D01*
X129037947Y-126804317D01*
X129090151Y-126759081D01*
X129124962Y-126742849D01*
X129124967Y-126742846D01*
X129129949Y-126740523D01*
X129234811Y-126667098D01*
X129312989Y-126612357D01*
X129312992Y-126612355D01*
X129317500Y-126609198D01*
X129479398Y-126447300D01*
X129610723Y-126259749D01*
X129613046Y-126254767D01*
X129613049Y-126254762D01*
X129705161Y-126057225D01*
X129705161Y-126057224D01*
X129707484Y-126052243D01*
X129709333Y-126045345D01*
X129765319Y-125836402D01*
X129765319Y-125836400D01*
X129766743Y-125831087D01*
X129786698Y-125603000D01*
X129766743Y-125374913D01*
X129757921Y-125341989D01*
X129708907Y-125159067D01*
X129708906Y-125159065D01*
X129707484Y-125153757D01*
X129705161Y-125148775D01*
X129613049Y-124951238D01*
X129613046Y-124951233D01*
X129610723Y-124946251D01*
X129479398Y-124758700D01*
X129317500Y-124596802D01*
X129312992Y-124593645D01*
X129312989Y-124593643D01*
X129179331Y-124500055D01*
X129129949Y-124465477D01*
X129124967Y-124463154D01*
X129124962Y-124463151D01*
X129090743Y-124447195D01*
X129037458Y-124400278D01*
X129017997Y-124332001D01*
X129038539Y-124264041D01*
X129090743Y-124218805D01*
X129124962Y-124202849D01*
X129124967Y-124202846D01*
X129129949Y-124200523D01*
X129234811Y-124127098D01*
X129312989Y-124072357D01*
X129312992Y-124072355D01*
X129317500Y-124069198D01*
X129479398Y-123907300D01*
X129610723Y-123719749D01*
X129613046Y-123714767D01*
X129613049Y-123714762D01*
X129705161Y-123517225D01*
X129705161Y-123517224D01*
X129707484Y-123512243D01*
X129709333Y-123505345D01*
X129765319Y-123296402D01*
X129765319Y-123296400D01*
X129766743Y-123291087D01*
X129786698Y-123063000D01*
X129766743Y-122834913D01*
X129765319Y-122829598D01*
X129708907Y-122619067D01*
X129708906Y-122619065D01*
X129707484Y-122613757D01*
X129621845Y-122430102D01*
X129613049Y-122411238D01*
X129613046Y-122411233D01*
X129610723Y-122406251D01*
X129479398Y-122218700D01*
X129317500Y-122056802D01*
X129312992Y-122053645D01*
X129312989Y-122053643D01*
X129179331Y-121960055D01*
X129129949Y-121925477D01*
X129124967Y-121923154D01*
X129124962Y-121923151D01*
X129090743Y-121907195D01*
X129037458Y-121860278D01*
X129017997Y-121792001D01*
X129038539Y-121724041D01*
X129090743Y-121678805D01*
X129124962Y-121662849D01*
X129124967Y-121662846D01*
X129129949Y-121660523D01*
X129181814Y-121624207D01*
X131415527Y-121624207D01*
X131428157Y-121843232D01*
X131429590Y-121853434D01*
X131477819Y-122067443D01*
X131480902Y-122077283D01*
X131563437Y-122280540D01*
X131568090Y-122289751D01*
X131654698Y-122431080D01*
X131665155Y-122440541D01*
X131673931Y-122436758D01*
X132444579Y-121666111D01*
X132450956Y-121654432D01*
X133181008Y-121654432D01*
X133181139Y-121656266D01*
X133185390Y-121662880D01*
X133955025Y-122432514D01*
X133967031Y-122439070D01*
X133978770Y-122430102D01*
X134015149Y-122379474D01*
X134020460Y-122370635D01*
X134117656Y-122173975D01*
X134121454Y-122164382D01*
X134185228Y-121954477D01*
X134187405Y-121944407D01*
X134216277Y-121725099D01*
X134216796Y-121718424D01*
X134218306Y-121656664D01*
X134218112Y-121649946D01*
X134199989Y-121429503D01*
X134198306Y-121419341D01*
X134144861Y-121206563D01*
X134141543Y-121196816D01*
X134054062Y-120995623D01*
X134049195Y-120986546D01*
X133977868Y-120876293D01*
X133967182Y-120867091D01*
X133957617Y-120871494D01*
X133188621Y-121640489D01*
X133181008Y-121654432D01*
X132450956Y-121654432D01*
X132452192Y-121652168D01*
X132452061Y-121650334D01*
X132447810Y-121643720D01*
X131678378Y-120874289D01*
X131666846Y-120867992D01*
X131654564Y-120877615D01*
X131600664Y-120956629D01*
X131595576Y-120965585D01*
X131503211Y-121164570D01*
X131499648Y-121174257D01*
X131441024Y-121385647D01*
X131439093Y-121395768D01*
X131415778Y-121613919D01*
X131415527Y-121624207D01*
X129181814Y-121624207D01*
X129234811Y-121587098D01*
X129312989Y-121532357D01*
X129312992Y-121532355D01*
X129317500Y-121529198D01*
X129479398Y-121367300D01*
X129610723Y-121179749D01*
X129613046Y-121174767D01*
X129613049Y-121174762D01*
X129705161Y-120977225D01*
X129705161Y-120977224D01*
X129707484Y-120972243D01*
X129766743Y-120751087D01*
X129786698Y-120523000D01*
X129766743Y-120294913D01*
X129757921Y-120261989D01*
X129708907Y-120079067D01*
X129708906Y-120079065D01*
X129707484Y-120073757D01*
X129705161Y-120068775D01*
X129613049Y-119871238D01*
X129613046Y-119871233D01*
X129610723Y-119866251D01*
X129479398Y-119678700D01*
X129317500Y-119516802D01*
X129312992Y-119513645D01*
X129312989Y-119513643D01*
X129179331Y-119420055D01*
X129129949Y-119385477D01*
X129124967Y-119383154D01*
X129124962Y-119383151D01*
X129090743Y-119367195D01*
X129037458Y-119320278D01*
X129017997Y-119252001D01*
X129038539Y-119184041D01*
X129090743Y-119138805D01*
X129124962Y-119122849D01*
X129124967Y-119122846D01*
X129129949Y-119120523D01*
X129189194Y-119079039D01*
X131414729Y-119079039D01*
X131427957Y-119308461D01*
X131429092Y-119313498D01*
X131429093Y-119313504D01*
X131477341Y-119527597D01*
X131478478Y-119532642D01*
X131564936Y-119745561D01*
X131685008Y-119941500D01*
X131835469Y-120115198D01*
X132012279Y-120261989D01*
X132016740Y-120264596D01*
X132016746Y-120264600D01*
X132027974Y-120271161D01*
X132034418Y-120274926D01*
X132083142Y-120326562D01*
X132096214Y-120396345D01*
X132069484Y-120462118D01*
X132046503Y-120484474D01*
X132038419Y-120490544D01*
X132029965Y-120501870D01*
X132036708Y-120514197D01*
X132803789Y-121281279D01*
X132817732Y-121288892D01*
X132819566Y-121288761D01*
X132826180Y-121284510D01*
X133597762Y-120512927D01*
X133604779Y-120500076D01*
X133597005Y-120489407D01*
X133596392Y-120488923D01*
X133592637Y-120486428D01*
X133546963Y-120432073D01*
X133537927Y-120361654D01*
X133568396Y-120297528D01*
X133589189Y-120278898D01*
X133717508Y-120187369D01*
X133717518Y-120187360D01*
X133721719Y-120184364D01*
X133884498Y-120022152D01*
X134018597Y-119835533D01*
X134120416Y-119629517D01*
X134146246Y-119544502D01*
X134185717Y-119414591D01*
X134185718Y-119414585D01*
X134187221Y-119409639D01*
X134217216Y-119181802D01*
X134217871Y-119154998D01*
X134218808Y-119116665D01*
X134218808Y-119116661D01*
X134218890Y-119113300D01*
X134208687Y-118989198D01*
X134200484Y-118889421D01*
X134200483Y-118889415D01*
X134200060Y-118884270D01*
X134144077Y-118661390D01*
X134052443Y-118450647D01*
X134037102Y-118426933D01*
X133930430Y-118262043D01*
X133930428Y-118262040D01*
X133927620Y-118257700D01*
X133885206Y-118211087D01*
X133776437Y-118091552D01*
X133776435Y-118091551D01*
X133772959Y-118087730D01*
X133768908Y-118084531D01*
X133768904Y-118084527D01*
X133596669Y-117948504D01*
X133596664Y-117948501D01*
X133592615Y-117945303D01*
X133592190Y-117945068D01*
X133547396Y-117891752D01*
X133538366Y-117821332D01*
X133568840Y-117757208D01*
X133589626Y-117738585D01*
X133717516Y-117647362D01*
X133721719Y-117644364D01*
X133884498Y-117482152D01*
X134018597Y-117295533D01*
X134120416Y-117089517D01*
X134146246Y-117004502D01*
X134185717Y-116874591D01*
X134185718Y-116874585D01*
X134187221Y-116869639D01*
X134217216Y-116641802D01*
X134217871Y-116614998D01*
X134218808Y-116576665D01*
X134218808Y-116576661D01*
X134218890Y-116573300D01*
X134208687Y-116449198D01*
X134200484Y-116349421D01*
X134200483Y-116349415D01*
X134200060Y-116344270D01*
X134144077Y-116121390D01*
X134052443Y-115910647D01*
X134037102Y-115886933D01*
X133930430Y-115722043D01*
X133930428Y-115722040D01*
X133927620Y-115717700D01*
X133885206Y-115671087D01*
X133776437Y-115551552D01*
X133776435Y-115551551D01*
X133772959Y-115547730D01*
X133768908Y-115544531D01*
X133768904Y-115544527D01*
X133596673Y-115408508D01*
X133592615Y-115405303D01*
X133391431Y-115294243D01*
X133274211Y-115252733D01*
X133179684Y-115219259D01*
X133179680Y-115219258D01*
X133174809Y-115217533D01*
X133169716Y-115216626D01*
X133169713Y-115216625D01*
X132953656Y-115178139D01*
X132953650Y-115178138D01*
X132948567Y-115177233D01*
X132875384Y-115176339D01*
X132723951Y-115174489D01*
X132723949Y-115174489D01*
X132718781Y-115174426D01*
X132567210Y-115197619D01*
X132496731Y-115208404D01*
X132496728Y-115208405D01*
X132491622Y-115209186D01*
X132388840Y-115242781D01*
X132278104Y-115278975D01*
X132278102Y-115278976D01*
X132273191Y-115280581D01*
X132069353Y-115386692D01*
X132065220Y-115389795D01*
X132065217Y-115389797D01*
X131889718Y-115521565D01*
X131885583Y-115524670D01*
X131882011Y-115528408D01*
X131740585Y-115676402D01*
X131726816Y-115690810D01*
X131597316Y-115880650D01*
X131500561Y-116089092D01*
X131439148Y-116310537D01*
X131414729Y-116539039D01*
X131427957Y-116768461D01*
X131429092Y-116773498D01*
X131429093Y-116773504D01*
X131477341Y-116987597D01*
X131478478Y-116992642D01*
X131564936Y-117205561D01*
X131685008Y-117401500D01*
X131835469Y-117575198D01*
X132012279Y-117721989D01*
X132016743Y-117724597D01*
X132016745Y-117724599D01*
X132033952Y-117734654D01*
X132082675Y-117786294D01*
X132095745Y-117856077D01*
X132069012Y-117921848D01*
X132046033Y-117944201D01*
X131987066Y-117988475D01*
X131885583Y-118064670D01*
X131882011Y-118068408D01*
X131740585Y-118216402D01*
X131726816Y-118230810D01*
X131597316Y-118420650D01*
X131500561Y-118629092D01*
X131439148Y-118850537D01*
X131414729Y-119079039D01*
X129189194Y-119079039D01*
X129234811Y-119047098D01*
X129312989Y-118992357D01*
X129312992Y-118992355D01*
X129317500Y-118989198D01*
X129479398Y-118827300D01*
X129610723Y-118639749D01*
X129613046Y-118634767D01*
X129613049Y-118634762D01*
X129705161Y-118437225D01*
X129705161Y-118437224D01*
X129707484Y-118432243D01*
X129709333Y-118425345D01*
X129765319Y-118216402D01*
X129765319Y-118216400D01*
X129766743Y-118211087D01*
X129786698Y-117983000D01*
X129766743Y-117754913D01*
X129757921Y-117721989D01*
X129708907Y-117539067D01*
X129708906Y-117539065D01*
X129707484Y-117533757D01*
X129705161Y-117528775D01*
X129613049Y-117331238D01*
X129613046Y-117331233D01*
X129610723Y-117326251D01*
X129479398Y-117138700D01*
X129317500Y-116976802D01*
X129312992Y-116973645D01*
X129312989Y-116973643D01*
X129179331Y-116880055D01*
X129129949Y-116845477D01*
X129124967Y-116843154D01*
X129124962Y-116843151D01*
X129090743Y-116827195D01*
X129037458Y-116780278D01*
X129017997Y-116712001D01*
X129038539Y-116644041D01*
X129090743Y-116598805D01*
X129124962Y-116582849D01*
X129124967Y-116582846D01*
X129129949Y-116580523D01*
X129234811Y-116507098D01*
X129312989Y-116452357D01*
X129312992Y-116452355D01*
X129317500Y-116449198D01*
X129479398Y-116287300D01*
X129610723Y-116099749D01*
X129613046Y-116094767D01*
X129613049Y-116094762D01*
X129705161Y-115897225D01*
X129705161Y-115897224D01*
X129707484Y-115892243D01*
X129709333Y-115885345D01*
X129765319Y-115676402D01*
X129765319Y-115676400D01*
X129766743Y-115671087D01*
X129786698Y-115443000D01*
X129766743Y-115214913D01*
X129765319Y-115209598D01*
X129708907Y-114999067D01*
X129708906Y-114999065D01*
X129707484Y-114993757D01*
X129705161Y-114988775D01*
X129613049Y-114791238D01*
X129613046Y-114791233D01*
X129610723Y-114786251D01*
X129479398Y-114598700D01*
X129317500Y-114436802D01*
X129312992Y-114433645D01*
X129312989Y-114433643D01*
X129179331Y-114340055D01*
X129129949Y-114305477D01*
X129124967Y-114303154D01*
X129124962Y-114303151D01*
X129090743Y-114287195D01*
X129037458Y-114240278D01*
X129017997Y-114172001D01*
X129038539Y-114104041D01*
X129090743Y-114058805D01*
X129124962Y-114042849D01*
X129124967Y-114042846D01*
X129129949Y-114040523D01*
X129234811Y-113967098D01*
X129312989Y-113912357D01*
X129312992Y-113912355D01*
X129317500Y-113909198D01*
X129479398Y-113747300D01*
X129610723Y-113559749D01*
X129613046Y-113554767D01*
X129613049Y-113554762D01*
X129705161Y-113357225D01*
X129705161Y-113357224D01*
X129707484Y-113352243D01*
X129766743Y-113131087D01*
X129786698Y-112903000D01*
X129766743Y-112674913D01*
X129707484Y-112453757D01*
X129705161Y-112448775D01*
X129613049Y-112251238D01*
X129613046Y-112251233D01*
X129610723Y-112246251D01*
X129479398Y-112058700D01*
X129317500Y-111896802D01*
X129312992Y-111893645D01*
X129312989Y-111893643D01*
X129179331Y-111800055D01*
X129129949Y-111765477D01*
X129124967Y-111763154D01*
X129124962Y-111763151D01*
X129090743Y-111747195D01*
X129037458Y-111700278D01*
X129017997Y-111632001D01*
X129038539Y-111564041D01*
X129090743Y-111518805D01*
X129124962Y-111502849D01*
X129124967Y-111502846D01*
X129129949Y-111500523D01*
X129234811Y-111427098D01*
X129312989Y-111372357D01*
X129312992Y-111372355D01*
X129317500Y-111369198D01*
X129479398Y-111207300D01*
X129610723Y-111019749D01*
X129613046Y-111014767D01*
X129613049Y-111014762D01*
X129705161Y-110817225D01*
X129705161Y-110817224D01*
X129707484Y-110812243D01*
X129766743Y-110591087D01*
X129786698Y-110363000D01*
X129766743Y-110134913D01*
X129707484Y-109913757D01*
X129705161Y-109908775D01*
X129613049Y-109711238D01*
X129613046Y-109711233D01*
X129610723Y-109706251D01*
X129479398Y-109518700D01*
X129317500Y-109356802D01*
X129312992Y-109353645D01*
X129312989Y-109353643D01*
X129179331Y-109260055D01*
X129129949Y-109225477D01*
X129124967Y-109223154D01*
X129124962Y-109223151D01*
X129090743Y-109207195D01*
X129037458Y-109160278D01*
X129017997Y-109092001D01*
X129038539Y-109024041D01*
X129090743Y-108978805D01*
X129124962Y-108962849D01*
X129124967Y-108962846D01*
X129129949Y-108960523D01*
X129234811Y-108887098D01*
X129312989Y-108832357D01*
X129312992Y-108832355D01*
X129317500Y-108829198D01*
X129479398Y-108667300D01*
X129610723Y-108479749D01*
X129613046Y-108474767D01*
X129613049Y-108474762D01*
X129705161Y-108277225D01*
X129705161Y-108277224D01*
X129707484Y-108272243D01*
X129766743Y-108051087D01*
X129786698Y-107823000D01*
X129766743Y-107594913D01*
X129707484Y-107373757D01*
X129705161Y-107368775D01*
X129613049Y-107171238D01*
X129613046Y-107171233D01*
X129610723Y-107166251D01*
X129479398Y-106978700D01*
X129317500Y-106816802D01*
X129312992Y-106813645D01*
X129312989Y-106813643D01*
X129179331Y-106720055D01*
X129129949Y-106685477D01*
X129124967Y-106683154D01*
X129124962Y-106683151D01*
X129090743Y-106667195D01*
X129037458Y-106620278D01*
X129017997Y-106552001D01*
X129038539Y-106484041D01*
X129090743Y-106438805D01*
X129124962Y-106422849D01*
X129124967Y-106422846D01*
X129129949Y-106420523D01*
X129234811Y-106347098D01*
X129312989Y-106292357D01*
X129312992Y-106292355D01*
X129317500Y-106289198D01*
X129479398Y-106127300D01*
X129610723Y-105939749D01*
X129613046Y-105934767D01*
X129613049Y-105934762D01*
X129705161Y-105737225D01*
X129705161Y-105737224D01*
X129707484Y-105732243D01*
X129766743Y-105511087D01*
X129786698Y-105283000D01*
X129766743Y-105054913D01*
X129707484Y-104833757D01*
X129705161Y-104828775D01*
X129613049Y-104631238D01*
X129613046Y-104631233D01*
X129610723Y-104626251D01*
X129479398Y-104438700D01*
X129317500Y-104276802D01*
X129312992Y-104273645D01*
X129312989Y-104273643D01*
X129179331Y-104180055D01*
X129129949Y-104145477D01*
X129124967Y-104143154D01*
X129124962Y-104143151D01*
X129090743Y-104127195D01*
X129037458Y-104080278D01*
X129017997Y-104012001D01*
X129038539Y-103944041D01*
X129090743Y-103898805D01*
X129124962Y-103882849D01*
X129124967Y-103882846D01*
X129129949Y-103880523D01*
X129234811Y-103807098D01*
X129312989Y-103752357D01*
X129312992Y-103752355D01*
X129317500Y-103749198D01*
X129479398Y-103587300D01*
X129610723Y-103399749D01*
X129613046Y-103394767D01*
X129613049Y-103394762D01*
X129705161Y-103197225D01*
X129705161Y-103197224D01*
X129707484Y-103192243D01*
X129766743Y-102971087D01*
X129786698Y-102743000D01*
X129766743Y-102514913D01*
X129707484Y-102293757D01*
X129705161Y-102288775D01*
X129613049Y-102091238D01*
X129613046Y-102091233D01*
X129610723Y-102086251D01*
X129479398Y-101898700D01*
X129317500Y-101736802D01*
X129312992Y-101733645D01*
X129312989Y-101733643D01*
X129179331Y-101640055D01*
X129129949Y-101605477D01*
X129124967Y-101603154D01*
X129124962Y-101603151D01*
X129090743Y-101587195D01*
X129037458Y-101540278D01*
X129017997Y-101472001D01*
X129038539Y-101404041D01*
X129090743Y-101358805D01*
X129124962Y-101342849D01*
X129124967Y-101342846D01*
X129129949Y-101340523D01*
X129234811Y-101267098D01*
X129312989Y-101212357D01*
X129312992Y-101212355D01*
X129317500Y-101209198D01*
X129479398Y-101047300D01*
X129587980Y-100892229D01*
X129643437Y-100847901D01*
X129691193Y-100838500D01*
X131924780Y-100838500D01*
X131936014Y-100839030D01*
X131943519Y-100840708D01*
X132011812Y-100838562D01*
X132015769Y-100838500D01*
X132043783Y-100838500D01*
X132047708Y-100838004D01*
X132047709Y-100838004D01*
X132047804Y-100837992D01*
X132059649Y-100837059D01*
X132089470Y-100836122D01*
X132096082Y-100835914D01*
X132096083Y-100835914D01*
X132104005Y-100835665D01*
X132123549Y-100829987D01*
X132142912Y-100825977D01*
X132155240Y-100824420D01*
X132155242Y-100824420D01*
X132163099Y-100823427D01*
X132170463Y-100820511D01*
X132170468Y-100820510D01*
X132204356Y-100807093D01*
X132215585Y-100803248D01*
X132232265Y-100798402D01*
X132258193Y-100790869D01*
X132265020Y-100786831D01*
X132265023Y-100786830D01*
X132275706Y-100780512D01*
X132293464Y-100771812D01*
X132305015Y-100767239D01*
X132305021Y-100767235D01*
X132312388Y-100764319D01*
X132348291Y-100738234D01*
X132358210Y-100731719D01*
X132389568Y-100713174D01*
X132389572Y-100713171D01*
X132396398Y-100709134D01*
X132410782Y-100694750D01*
X132425816Y-100681909D01*
X132435873Y-100674602D01*
X132442287Y-100669942D01*
X132470578Y-100635744D01*
X132478567Y-100626965D01*
X138444992Y-94660540D01*
X138507304Y-94626514D01*
X138566698Y-94627928D01*
X138647140Y-94649482D01*
X138647142Y-94649482D01*
X138652455Y-94650906D01*
X138887200Y-94671444D01*
X139121945Y-94650906D01*
X139127260Y-94649482D01*
X139344248Y-94591341D01*
X139344250Y-94591340D01*
X139349558Y-94589918D01*
X139355552Y-94587123D01*
X139558141Y-94492654D01*
X139558144Y-94492652D01*
X139563122Y-94490331D01*
X139756149Y-94355173D01*
X139922773Y-94188549D01*
X140053986Y-94001155D01*
X140109444Y-93956826D01*
X140180063Y-93949517D01*
X140243424Y-93981547D01*
X140260413Y-94001155D01*
X140391627Y-94188549D01*
X140558251Y-94355173D01*
X140751278Y-94490331D01*
X140756256Y-94492652D01*
X140756259Y-94492654D01*
X140958848Y-94587123D01*
X140964842Y-94589918D01*
X140970150Y-94591340D01*
X140970152Y-94591341D01*
X141187140Y-94649482D01*
X141192455Y-94650906D01*
X141427200Y-94671444D01*
X141661945Y-94650906D01*
X141667260Y-94649482D01*
X141884248Y-94591341D01*
X141884250Y-94591340D01*
X141889558Y-94589918D01*
X141895552Y-94587123D01*
X142098141Y-94492654D01*
X142098144Y-94492652D01*
X142103122Y-94490331D01*
X142296149Y-94355173D01*
X142462773Y-94188549D01*
X142597931Y-93995522D01*
X142601145Y-93988631D01*
X142695195Y-93786940D01*
X142695196Y-93786938D01*
X142697518Y-93781958D01*
X142707763Y-93743725D01*
X142757082Y-93559660D01*
X142757082Y-93559659D01*
X142758506Y-93554345D01*
X142779044Y-93319600D01*
X142758506Y-93084855D01*
X142722589Y-92950810D01*
X142698941Y-92862552D01*
X142698940Y-92862550D01*
X142697518Y-92857242D01*
X142678474Y-92816402D01*
X142600254Y-92648659D01*
X142600252Y-92648656D01*
X142597931Y-92643678D01*
X142462773Y-92450651D01*
X142296149Y-92284027D01*
X142103122Y-92148869D01*
X142098144Y-92146548D01*
X142098141Y-92146546D01*
X141894540Y-92051605D01*
X141894538Y-92051604D01*
X141889558Y-92049282D01*
X141884250Y-92047860D01*
X141884248Y-92047859D01*
X141667260Y-91989718D01*
X141667259Y-91989718D01*
X141661945Y-91988294D01*
X141427200Y-91967756D01*
X141192455Y-91988294D01*
X141187141Y-91989718D01*
X141187140Y-91989718D01*
X140970152Y-92047859D01*
X140970150Y-92047860D01*
X140964842Y-92049282D01*
X140959862Y-92051604D01*
X140959860Y-92051605D01*
X140756259Y-92146546D01*
X140756256Y-92146548D01*
X140751278Y-92148869D01*
X140558251Y-92284027D01*
X140391627Y-92450651D01*
X140388468Y-92455163D01*
X140260413Y-92638045D01*
X140204956Y-92682374D01*
X140134337Y-92689683D01*
X140070976Y-92657653D01*
X140053987Y-92638045D01*
X139925932Y-92455163D01*
X139922773Y-92450651D01*
X139756149Y-92284027D01*
X139563122Y-92148869D01*
X139558144Y-92146548D01*
X139558141Y-92146546D01*
X139354540Y-92051605D01*
X139354538Y-92051604D01*
X139349558Y-92049282D01*
X139344250Y-92047860D01*
X139344248Y-92047859D01*
X139127260Y-91989718D01*
X139127259Y-91989718D01*
X139121945Y-91988294D01*
X138887200Y-91967756D01*
X138652455Y-91988294D01*
X138647141Y-91989718D01*
X138647140Y-91989718D01*
X138430152Y-92047859D01*
X138430150Y-92047860D01*
X138424842Y-92049282D01*
X138419862Y-92051604D01*
X138419860Y-92051605D01*
X138216259Y-92146546D01*
X138216256Y-92146548D01*
X138211278Y-92148869D01*
X138018251Y-92284027D01*
X137851627Y-92450651D01*
X137720413Y-92638045D01*
X137720108Y-92638481D01*
X137664651Y-92682809D01*
X137594032Y-92690118D01*
X137530671Y-92658088D01*
X137513682Y-92638481D01*
X137472119Y-92579123D01*
X137461642Y-92570748D01*
X137448196Y-92577815D01*
X136706410Y-93319600D01*
X136347200Y-93678810D01*
X135604694Y-94421317D01*
X135598265Y-94433091D01*
X135607561Y-94445106D01*
X135667021Y-94486740D01*
X135676516Y-94492223D01*
X135880032Y-94587123D01*
X135890324Y-94590869D01*
X136107227Y-94648988D01*
X136118023Y-94650892D01*
X136344621Y-94670716D01*
X136410740Y-94696579D01*
X136452379Y-94754083D01*
X136456320Y-94824970D01*
X136422735Y-94885332D01*
X131777472Y-99530595D01*
X131715160Y-99564621D01*
X131688377Y-99567500D01*
X129691193Y-99567500D01*
X129623072Y-99547498D01*
X129587980Y-99513771D01*
X129482557Y-99363211D01*
X129482555Y-99363208D01*
X129479398Y-99358700D01*
X129317500Y-99196802D01*
X129312992Y-99193645D01*
X129312989Y-99193643D01*
X129179331Y-99100055D01*
X129129949Y-99065477D01*
X129124967Y-99063154D01*
X129124962Y-99063151D01*
X129090151Y-99046919D01*
X129036866Y-99000002D01*
X129017405Y-98931725D01*
X129037947Y-98863765D01*
X129090151Y-98818529D01*
X129124711Y-98802414D01*
X129134206Y-98796931D01*
X129186248Y-98760491D01*
X129194624Y-98750012D01*
X129187556Y-98736566D01*
X128203085Y-97752095D01*
X128169059Y-97689783D01*
X128170894Y-97664132D01*
X128837608Y-97664132D01*
X128837739Y-97665965D01*
X128841990Y-97672580D01*
X129547487Y-98378077D01*
X129559262Y-98384507D01*
X129571277Y-98375211D01*
X129607131Y-98324006D01*
X129612614Y-98314511D01*
X129704690Y-98117053D01*
X129708436Y-98106761D01*
X129764825Y-97896312D01*
X129766728Y-97885519D01*
X129785717Y-97668475D01*
X129785717Y-97657525D01*
X129766728Y-97440481D01*
X129764825Y-97429688D01*
X129708436Y-97219239D01*
X129704690Y-97208947D01*
X129612614Y-97011489D01*
X129607131Y-97001994D01*
X129570691Y-96949952D01*
X129560212Y-96941576D01*
X129546766Y-96948644D01*
X128845222Y-97650188D01*
X128837608Y-97664132D01*
X128170894Y-97664132D01*
X128174124Y-97618968D01*
X128203085Y-97573905D01*
X129188277Y-96588713D01*
X129194707Y-96576938D01*
X129185411Y-96564923D01*
X129134206Y-96529069D01*
X129124711Y-96523586D01*
X129090151Y-96507471D01*
X129036866Y-96460554D01*
X129017405Y-96392277D01*
X129037947Y-96324317D01*
X129090151Y-96279081D01*
X129124962Y-96262849D01*
X129124967Y-96262846D01*
X129129949Y-96260523D01*
X129234811Y-96187098D01*
X129312989Y-96132357D01*
X129312992Y-96132355D01*
X129317500Y-96129198D01*
X129479398Y-95967300D01*
X129610723Y-95779749D01*
X129613046Y-95774767D01*
X129613049Y-95774762D01*
X129705161Y-95577225D01*
X129705161Y-95577224D01*
X129707484Y-95572243D01*
X129766743Y-95351087D01*
X129786698Y-95123000D01*
X129766743Y-94894913D01*
X129748002Y-94824970D01*
X129708907Y-94679067D01*
X129708906Y-94679065D01*
X129707484Y-94673757D01*
X129697052Y-94651385D01*
X129613049Y-94471238D01*
X129613046Y-94471233D01*
X129610723Y-94466251D01*
X129479398Y-94278700D01*
X129317500Y-94116802D01*
X129312992Y-94113645D01*
X129312989Y-94113643D01*
X129146928Y-93997366D01*
X129129949Y-93985477D01*
X129124967Y-93983154D01*
X129124962Y-93983151D01*
X129090743Y-93967195D01*
X129037458Y-93920278D01*
X129017997Y-93852001D01*
X129038539Y-93784041D01*
X129090743Y-93738805D01*
X129124962Y-93722849D01*
X129124967Y-93722846D01*
X129129949Y-93720523D01*
X129234811Y-93647098D01*
X129312989Y-93592357D01*
X129312992Y-93592355D01*
X129317500Y-93589198D01*
X129479398Y-93427300D01*
X129550977Y-93325075D01*
X134996337Y-93325075D01*
X135015909Y-93548778D01*
X135017812Y-93559573D01*
X135075931Y-93776476D01*
X135079677Y-93786768D01*
X135174577Y-93990284D01*
X135180060Y-93999779D01*
X135222281Y-94060077D01*
X135232758Y-94068452D01*
X135246204Y-94061385D01*
X135975179Y-93332411D01*
X135982792Y-93318468D01*
X135982661Y-93316634D01*
X135978410Y-93310020D01*
X135245480Y-92577091D01*
X135233710Y-92570664D01*
X135221696Y-92579958D01*
X135180060Y-92639421D01*
X135174577Y-92648916D01*
X135079677Y-92852432D01*
X135075931Y-92862724D01*
X135017812Y-93079627D01*
X135015909Y-93090422D01*
X134996337Y-93314125D01*
X134996337Y-93325075D01*
X129550977Y-93325075D01*
X129610723Y-93239749D01*
X129613046Y-93234767D01*
X129613049Y-93234762D01*
X129705161Y-93037225D01*
X129705161Y-93037224D01*
X129707484Y-93032243D01*
X129754559Y-92856560D01*
X129765319Y-92816402D01*
X129765319Y-92816400D01*
X129766743Y-92811087D01*
X129786698Y-92583000D01*
X129766743Y-92354913D01*
X129726616Y-92205158D01*
X135598348Y-92205158D01*
X135605415Y-92218604D01*
X136334389Y-92947579D01*
X136348332Y-92955192D01*
X136350166Y-92955061D01*
X136356780Y-92950810D01*
X137089709Y-92217880D01*
X137096136Y-92206110D01*
X137086842Y-92194096D01*
X137027379Y-92152460D01*
X137017884Y-92146977D01*
X136814368Y-92052077D01*
X136804076Y-92048331D01*
X136587173Y-91990212D01*
X136576378Y-91988309D01*
X136352675Y-91968737D01*
X136341725Y-91968737D01*
X136118022Y-91988309D01*
X136107227Y-91990212D01*
X135890324Y-92048331D01*
X135880032Y-92052077D01*
X135676516Y-92146977D01*
X135667021Y-92152460D01*
X135606723Y-92194681D01*
X135598348Y-92205158D01*
X129726616Y-92205158D01*
X129723652Y-92194096D01*
X129708907Y-92139067D01*
X129708906Y-92139065D01*
X129707484Y-92133757D01*
X129705161Y-92128775D01*
X129613049Y-91931238D01*
X129613046Y-91931233D01*
X129610723Y-91926251D01*
X129479398Y-91738700D01*
X129317500Y-91576802D01*
X129312989Y-91573643D01*
X129308776Y-91570108D01*
X129309727Y-91568974D01*
X129269729Y-91518929D01*
X129262424Y-91448310D01*
X129294458Y-91384951D01*
X129355662Y-91348970D01*
X129372717Y-91345918D01*
X129383516Y-91344745D01*
X129519905Y-91293615D01*
X129636461Y-91206261D01*
X129723815Y-91089705D01*
X129774945Y-90953316D01*
X129781700Y-90891134D01*
X129781700Y-89194866D01*
X129774945Y-89132684D01*
X129723815Y-88996295D01*
X129636461Y-88879739D01*
X129519905Y-88792385D01*
X129383516Y-88741255D01*
X129321334Y-88734500D01*
X127727200Y-88734500D01*
X127659079Y-88714498D01*
X127612586Y-88660842D01*
X127601200Y-88608500D01*
X127601200Y-86286207D01*
X127602946Y-86265303D01*
X127605464Y-86250335D01*
X127606271Y-86245539D01*
X127606424Y-86233000D01*
X127604701Y-86220968D01*
X127603699Y-86194871D01*
X127618985Y-85961657D01*
X127621136Y-85945316D01*
X127672577Y-85686706D01*
X127676843Y-85670787D01*
X127761594Y-85421117D01*
X127767901Y-85405889D01*
X127884523Y-85169404D01*
X127892764Y-85155131D01*
X128039250Y-84935898D01*
X128049283Y-84922823D01*
X128223138Y-84724579D01*
X128234779Y-84712938D01*
X128433023Y-84539083D01*
X128446098Y-84529050D01*
X128665331Y-84382564D01*
X128679604Y-84374323D01*
X128916089Y-84257701D01*
X128931317Y-84251394D01*
X129180987Y-84166643D01*
X129196906Y-84162377D01*
X129455515Y-84110936D01*
X129471857Y-84108785D01*
X129701469Y-84093736D01*
X129724504Y-84094761D01*
X129728054Y-84094804D01*
X129736930Y-84096186D01*
X129768452Y-84092064D01*
X129784789Y-84091000D01*
X147473872Y-84091000D01*
X147493257Y-84092500D01*
G37*
%TD.AperFunction*%
%TD*%
M02*
